<svg width="1920" height="1150" viewBox="0 0 1920 1150" fill="none" xmlns="http://www.w3.org/2000/svg">
<g clip-path="url(#clip0_776_3)">
<rect width="1920" height="1150" rx="16" fill="#1E1E1E"/>
<g filter="url(#filter0_di_776_3)">
<g clip-path="url(#clip1_776_3)">
<g filter="url(#filter1_di_776_3)">
<path d="M0 16C0 7.16344 7.16345 0 16 0H1904C1912.84 0 1920 7.16344 1920 16V70H0V16Z" fill="url(#paint0_linear_776_3)"/>
</g>
<path d="M1788.18 38.7778C1788.75 38.7778 1789.23 38.3055 1789.23 37.7433V26.4306L1789.15 24.7663L1789.83 25.5872L1791.41 27.2627C1791.59 27.4652 1791.84 27.5664 1792.1 27.5664C1792.62 27.5664 1793.05 27.1953 1793.05 26.6668C1793.05 26.3856 1792.93 26.1832 1792.74 25.992L1788.98 22.3598C1788.71 22.09 1788.45 22 1788.18 22C1787.9 22 1787.65 22.09 1787.38 22.3598L1783.61 25.992C1783.42 26.1832 1783.3 26.3856 1783.3 26.6668C1783.3 27.1953 1783.72 27.5664 1784.24 27.5664C1784.49 27.5664 1784.76 27.4652 1784.94 27.2627L1786.52 25.5872L1787.21 24.7551L1787.12 26.4306V37.7433C1787.12 38.3055 1787.6 38.7778 1788.18 38.7778ZM1781.7 47.7627H1794.64C1797.08 47.7627 1798.34 46.5033 1798.34 44.0968V33.0428C1798.34 30.6363 1797.08 29.3768 1794.64 29.3768H1791.61V31.6146H1794.5C1795.52 31.6146 1796.1 32.1544 1796.1 33.2339V43.8944C1796.1 44.9739 1795.52 45.5137 1794.5 45.5137H1781.84C1780.81 45.5137 1780.24 44.9739 1780.24 43.8944V33.2339C1780.24 32.1544 1780.81 31.6146 1781.84 31.6146H1784.76V29.3768H1781.7C1779.27 29.3768 1778 30.6251 1778 33.0428V44.0968C1778 46.5033 1779.27 47.7627 1781.7 47.7627Z" fill="#B7B7B7"/>
<path d="M1835.63 45.0508C1836.34 45.0508 1836.92 44.4709 1836.92 43.8128V36.8308H1843.84C1844.53 36.8308 1845.12 36.262 1845.12 35.5593C1845.12 34.8678 1844.53 34.2878 1843.84 34.2878H1836.92V27.3058C1836.92 26.6366 1836.34 26.0678 1835.63 26.0678C1834.92 26.0678 1834.33 26.6366 1834.33 27.3058V34.2878H1827.42C1826.75 34.2878 1826.14 34.8678 1826.14 35.5593C1826.14 36.262 1826.75 36.8308 1827.42 36.8308H1834.33V43.8128C1834.33 44.4709 1834.92 45.0508 1835.63 45.0508Z" fill="#B7B7B7"/>
<path d="M1877.29 42.3861H1879.2V44.0837C1879.2 46.4895 1880.47 47.7486 1882.9 47.7486H1894.3C1896.73 47.7486 1898 46.4895 1898 44.0837V32.6054C1898 30.1996 1896.73 28.9404 1894.3 28.9404H1892.39V27.2541C1892.39 24.8483 1891.12 23.5892 1888.69 23.5892H1877.29C1874.85 23.5892 1873.59 24.8483 1873.59 27.2541V38.7211C1873.59 41.1382 1874.85 42.3861 1877.29 42.3861ZM1877.44 40.1489C1876.4 40.1489 1875.83 39.6093 1875.83 38.5188V27.4565C1875.83 26.366 1876.4 25.8376 1877.44 25.8376H1888.55C1889.57 25.8376 1890.15 26.366 1890.15 27.4565V28.9404H1882.9C1880.47 28.9404 1879.2 30.1996 1879.2 32.6054V40.1489H1877.44ZM1883.05 45.5002C1882.01 45.5002 1881.45 44.9606 1881.45 43.8813V32.8078C1881.45 31.7285 1882.01 31.1889 1883.05 31.1889H1894.16C1895.19 31.1889 1895.76 31.7285 1895.76 32.8078V43.8813C1895.76 44.9606 1895.19 45.5002 1894.16 45.5002H1883.05Z" fill="#B7B7B7"/>
<rect x="710" y="12" width="537" height="45" rx="6" fill="#2F2F2F"/>
<path d="M1222.71 34.4545C1223 34.4545 1223.23 34.3636 1223.41 34.1717L1227.54 30C1227.76 29.7778 1227.86 29.5354 1227.86 29.2525C1227.86 28.9798 1227.75 28.7172 1227.54 28.5152L1223.41 24.303C1223.23 24.101 1223 24 1222.71 24C1222.16 24 1221.73 24.4545 1221.73 25.0101C1221.73 25.2828 1221.83 25.5051 1222 25.697L1224.41 28.0606C1223.94 27.9899 1223.45 27.9495 1222.97 27.9495C1217.99 27.9495 1214 31.9495 1214 36.9596C1214 41.9697 1218.02 46 1223 46C1227.99 46 1232 41.9697 1232 36.9596C1232 36.3535 1231.58 35.9192 1230.97 35.9192C1230.39 35.9192 1230 36.3535 1230 36.9596C1230 40.8586 1226.89 43.9899 1223 43.9899C1219.12 43.9899 1216 40.8586 1216 36.9596C1216 33.0303 1219.09 29.9192 1222.97 29.9192C1223.62 29.9192 1224.23 29.9697 1224.76 30.0606L1222.01 32.7879C1221.83 32.9697 1221.73 33.1919 1221.73 33.4646C1221.73 34.0202 1222.16 34.4545 1222.71 34.4545Z" fill="#E3E3E3"/>
<path d="M860.497 41.2045C859.551 41.2045 858.735 40.9957 858.049 40.5781C857.367 40.1562 856.841 39.5682 856.47 38.8139C856.104 38.0554 855.92 37.1733 855.92 36.1676C855.92 35.1619 856.104 34.2756 856.47 33.5085C856.841 32.7372 857.357 32.1364 858.017 31.706C858.682 31.2713 859.457 31.054 860.344 31.054C860.855 31.054 861.36 31.1392 861.859 31.3097C862.357 31.4801 862.811 31.7571 863.22 32.1406C863.629 32.5199 863.955 33.0227 864.198 33.6491C864.441 34.2756 864.562 35.0469 864.562 35.9631V36.6023H856.994V35.2983H863.028C863.028 34.7443 862.918 34.25 862.696 33.8153C862.479 33.3807 862.168 33.0376 861.763 32.7862C861.362 32.5348 860.889 32.4091 860.344 32.4091C859.743 32.4091 859.223 32.5582 858.784 32.8565C858.349 33.1506 858.015 33.5341 857.781 34.0071C857.546 34.4801 857.429 34.9872 857.429 35.5284V36.3977C857.429 37.1392 857.557 37.7678 857.812 38.2834C858.072 38.7947 858.433 39.1847 858.893 39.4531C859.353 39.7173 859.888 39.8494 860.497 39.8494C860.893 39.8494 861.251 39.794 861.571 39.6832C861.895 39.5682 862.174 39.3977 862.408 39.1719C862.643 38.9418 862.824 38.6562 862.952 38.3153L864.409 38.7244C864.256 39.2188 863.998 39.6534 863.636 40.0284C863.273 40.3991 862.826 40.6889 862.293 40.8977C861.761 41.1023 861.162 41.2045 860.497 41.2045ZM868.079 31.1818L870.431 35.196L872.783 31.1818H874.522L871.351 36.0909L874.522 41H872.783L870.431 37.1903L868.079 41H866.34L869.459 36.0909L866.34 31.1818H868.079ZM879.923 41.2301C879.301 41.2301 878.737 41.1129 878.23 40.8786C877.722 40.6399 877.32 40.2969 877.021 39.8494C876.723 39.3977 876.574 38.8523 876.574 38.2131C876.574 37.6506 876.685 37.1946 876.906 36.8452C877.128 36.4915 877.424 36.2145 877.795 36.0142C878.166 35.8139 878.575 35.6648 879.022 35.5668C879.474 35.4645 879.928 35.3835 880.384 35.3239C880.98 35.2472 881.464 35.1896 881.835 35.1513C882.21 35.1087 882.482 35.0384 882.653 34.9403C882.828 34.8423 882.915 34.6719 882.915 34.429V34.3778C882.915 33.7472 882.742 33.2571 882.397 32.9077C882.056 32.5582 881.539 32.3835 880.844 32.3835C880.124 32.3835 879.559 32.5412 879.15 32.8565C878.741 33.1719 878.453 33.5085 878.287 33.8665L876.855 33.3551C877.111 32.7585 877.452 32.294 877.878 31.9616C878.308 31.625 878.777 31.3906 879.284 31.2585C879.796 31.1222 880.298 31.054 880.793 31.054C881.108 31.054 881.47 31.0923 881.879 31.169C882.293 31.2415 882.691 31.3928 883.075 31.6229C883.463 31.853 883.784 32.2003 884.04 32.6648C884.296 33.1293 884.423 33.7514 884.423 34.5312V41H882.915V39.6705H882.838C882.736 39.8835 882.566 40.1115 882.327 40.3544C882.088 40.5973 881.771 40.804 881.374 40.9744C880.978 41.1449 880.495 41.2301 879.923 41.2301ZM880.154 39.875C880.75 39.875 881.253 39.7578 881.662 39.5234C882.075 39.2891 882.387 38.9865 882.595 38.6158C882.808 38.245 882.915 37.8551 882.915 37.446V36.0653C882.851 36.142 882.71 36.2124 882.493 36.2763C882.28 36.3359 882.033 36.3892 881.752 36.4361C881.475 36.4787 881.204 36.517 880.94 36.5511C880.68 36.581 880.469 36.6065 880.307 36.6278C879.915 36.679 879.548 36.7621 879.208 36.8771C878.871 36.9879 878.598 37.1562 878.389 37.3821C878.185 37.6037 878.083 37.9062 878.083 38.2898C878.083 38.8139 878.276 39.2102 878.664 39.4787C879.056 39.7429 879.553 39.875 880.154 39.875ZM887.537 41V31.1818H888.994V32.7159H889.122C889.327 32.1918 889.657 31.7848 890.113 31.495C890.569 31.201 891.116 31.054 891.756 31.054C892.403 31.054 892.942 31.201 893.373 31.495C893.807 31.7848 894.146 32.1918 894.389 32.7159H894.491C894.743 32.2088 895.12 31.8061 895.623 31.5078C896.126 31.2053 896.729 31.054 897.432 31.054C898.31 31.054 899.028 31.3288 899.586 31.8786C900.144 32.424 900.423 33.2741 900.423 34.429V41H898.915V34.429C898.915 33.7045 898.717 33.1868 898.32 32.8757C897.924 32.5646 897.457 32.4091 896.92 32.4091C896.23 32.4091 895.695 32.6179 895.316 33.0355C894.937 33.4489 894.747 33.973 894.747 34.608V41H893.213V34.2756C893.213 33.7173 893.032 33.2678 892.67 32.9268C892.307 32.5817 891.841 32.4091 891.27 32.4091C890.878 32.4091 890.511 32.5135 890.17 32.7223C889.834 32.9311 889.561 33.2209 889.352 33.5916C889.148 33.9581 889.045 34.3821 889.045 34.8636V41H887.537ZM903.541 44.6818V31.1818H904.999V32.7415H905.178C905.289 32.571 905.442 32.3537 905.638 32.0895C905.838 31.821 906.124 31.5824 906.495 31.3736C906.87 31.1605 907.377 31.054 908.016 31.054C908.843 31.054 909.571 31.2607 910.202 31.674C910.833 32.0874 911.325 32.6733 911.678 33.4318C912.032 34.1903 912.209 35.0852 912.209 36.1165C912.209 37.1562 912.032 38.0575 911.678 38.8203C911.325 39.5788 910.835 40.1669 910.208 40.5845C909.582 40.9979 908.86 41.2045 908.041 41.2045C907.411 41.2045 906.906 41.1001 906.526 40.8913C906.147 40.6783 905.855 40.4375 905.651 40.169C905.446 39.8963 905.289 39.6705 905.178 39.4915H905.05V44.6818H903.541ZM905.024 36.0909C905.024 36.8324 905.133 37.4865 905.35 38.0533C905.568 38.6158 905.885 39.0568 906.303 39.3764C906.72 39.6918 907.232 39.8494 907.837 39.8494C908.468 39.8494 908.994 39.6832 909.416 39.3509C909.842 39.0142 910.161 38.5625 910.374 37.9957C910.592 37.4247 910.7 36.7898 910.7 36.0909C910.7 35.4006 910.594 34.7784 910.381 34.2244C910.172 33.6662 909.855 33.2251 909.428 32.9013C909.007 32.5732 908.476 32.4091 907.837 32.4091C907.223 32.4091 906.708 32.5646 906.29 32.8757C905.872 33.1825 905.557 33.6129 905.344 34.1669C905.131 34.7166 905.024 35.358 905.024 36.0909ZM916.379 27.9091V41H914.87V27.9091H916.379ZM923.618 41.2045C922.672 41.2045 921.856 40.9957 921.17 40.5781C920.488 40.1562 919.962 39.5682 919.591 38.8139C919.225 38.0554 919.041 37.1733 919.041 36.1676C919.041 35.1619 919.225 34.2756 919.591 33.5085C919.962 32.7372 920.477 32.1364 921.138 31.706C921.803 31.2713 922.578 31.054 923.465 31.054C923.976 31.054 924.481 31.1392 924.98 31.3097C925.478 31.4801 925.932 31.7571 926.341 32.1406C926.75 32.5199 927.076 33.0227 927.319 33.6491C927.562 34.2756 927.683 35.0469 927.683 35.9631V36.6023H920.115V35.2983H926.149C926.149 34.7443 926.039 34.25 925.817 33.8153C925.6 33.3807 925.289 33.0376 924.884 32.7862C924.483 32.5348 924.01 32.4091 923.465 32.4091C922.864 32.4091 922.344 32.5582 921.905 32.8565C921.47 33.1506 921.136 33.5341 920.901 34.0071C920.667 34.4801 920.55 34.9872 920.55 35.5284V36.3977C920.55 37.1392 920.678 37.7678 920.933 38.2834C921.193 38.7947 921.553 39.1847 922.014 39.4531C922.474 39.7173 923.009 39.8494 923.618 39.8494C924.014 39.8494 924.372 39.794 924.692 39.6832C925.016 39.5682 925.295 39.3977 925.529 39.1719C925.764 38.9418 925.945 38.6562 926.073 38.3153L927.53 38.7244C927.377 39.2188 927.119 39.6534 926.757 40.0284C926.394 40.3991 925.947 40.6889 925.414 40.8977C924.882 41.1023 924.283 41.2045 923.618 41.2045ZM931.438 41.1023C931.122 41.1023 930.852 40.9893 930.626 40.7635C930.4 40.5376 930.287 40.267 930.287 39.9517C930.287 39.6364 930.4 39.3658 930.626 39.1399C930.852 38.9141 931.122 38.8011 931.438 38.8011C931.753 38.8011 932.024 38.9141 932.249 39.1399C932.475 39.3658 932.588 39.6364 932.588 39.9517C932.588 40.1605 932.535 40.3523 932.428 40.527C932.326 40.7017 932.188 40.8423 932.013 40.9489C931.842 41.0511 931.651 41.1023 931.438 41.1023ZM937.88 41L934.888 31.1818H936.473L938.596 38.6989H938.698L940.794 31.1818H942.405L944.476 38.6733H944.579L946.701 31.1818H948.286L945.294 41H943.811L941.664 33.4574H941.51L939.363 41H937.88ZM954.423 41.2045C953.477 41.2045 952.661 40.9957 951.975 40.5781C951.293 40.1562 950.766 39.5682 950.396 38.8139C950.029 38.0554 949.846 37.1733 949.846 36.1676C949.846 35.1619 950.029 34.2756 950.396 33.5085C950.766 32.7372 951.282 32.1364 951.943 31.706C952.607 31.2713 953.383 31.054 954.269 31.054C954.781 31.054 955.286 31.1392 955.784 31.3097C956.283 31.4801 956.737 31.7571 957.146 32.1406C957.555 32.5199 957.881 33.0227 958.124 33.6491C958.367 34.2756 958.488 35.0469 958.488 35.9631V36.6023H950.92V35.2983H956.954C956.954 34.7443 956.843 34.25 956.622 33.8153C956.404 33.3807 956.093 33.0376 955.688 32.7862C955.288 32.5348 954.815 32.4091 954.269 32.4091C953.668 32.4091 953.149 32.5582 952.71 32.8565C952.275 33.1506 951.94 33.5341 951.706 34.0071C951.472 34.4801 951.355 34.9872 951.355 35.5284V36.3977C951.355 37.1392 951.482 37.7678 951.738 38.2834C951.998 38.7947 952.358 39.1847 952.818 39.4531C953.279 39.7173 953.813 39.8494 954.423 39.8494C954.819 39.8494 955.177 39.794 955.497 39.6832C955.82 39.5682 956.1 39.3977 956.334 39.1719C956.568 38.9418 956.749 38.6562 956.877 38.3153L958.335 38.7244C958.181 39.2188 957.923 39.6534 957.561 40.0284C957.199 40.3991 956.752 40.6889 956.219 40.8977C955.686 41.1023 955.087 41.2045 954.423 41.2045ZM961.347 41V27.9091H962.856V32.7415H962.984C963.094 32.571 963.248 32.3537 963.444 32.0895C963.644 31.821 963.93 31.5824 964.3 31.3736C964.675 31.1605 965.183 31.054 965.822 31.054C966.648 31.054 967.377 31.2607 968.008 31.674C968.639 32.0874 969.131 32.6733 969.484 33.4318C969.838 34.1903 970.015 35.0852 970.015 36.1165C970.015 37.1562 969.838 38.0575 969.484 38.8203C969.131 39.5788 968.641 40.1669 968.014 40.5845C967.388 40.9979 966.666 41.2045 965.847 41.2045C965.217 41.2045 964.712 41.1001 964.332 40.8913C963.953 40.6783 963.661 40.4375 963.457 40.169C963.252 39.8963 963.094 39.6705 962.984 39.4915H962.805V41H961.347ZM962.83 36.0909C962.83 36.8324 962.939 37.4865 963.156 38.0533C963.374 38.6158 963.691 39.0568 964.109 39.3764C964.526 39.6918 965.038 39.8494 965.643 39.8494C966.273 39.8494 966.8 39.6832 967.222 39.3509C967.648 39.0142 967.967 38.5625 968.18 37.9957C968.398 37.4247 968.506 36.7898 968.506 36.0909C968.506 35.4006 968.4 34.7784 968.187 34.2244C967.978 33.6662 967.661 33.2251 967.234 32.9013C966.813 32.5732 966.282 32.4091 965.643 32.4091C965.029 32.4091 964.514 32.5646 964.096 32.8757C963.678 33.1825 963.363 33.6129 963.15 34.1669C962.937 34.7166 962.83 35.358 962.83 36.0909ZM979.637 33.3807L978.282 33.7642C978.197 33.5384 978.071 33.3189 977.905 33.1058C977.743 32.8885 977.521 32.7095 977.24 32.5689C976.959 32.4283 976.599 32.358 976.16 32.358C975.559 32.358 975.058 32.4964 974.658 32.7734C974.261 33.0462 974.063 33.3935 974.063 33.8153C974.063 34.1903 974.2 34.4865 974.472 34.7038C974.745 34.9212 975.171 35.1023 975.751 35.2472L977.208 35.6051C978.086 35.8182 978.74 36.1442 979.17 36.5831C979.601 37.0178 979.816 37.5781 979.816 38.2642C979.816 38.8267 979.654 39.3295 979.33 39.7727C979.011 40.2159 978.563 40.5653 977.988 40.821C977.413 41.0767 976.744 41.2045 975.981 41.2045C974.979 41.2045 974.151 40.9872 973.494 40.5526C972.838 40.1179 972.423 39.483 972.248 38.6477L973.68 38.2898C973.816 38.8182 974.074 39.2145 974.453 39.4787C974.837 39.7429 975.337 39.875 975.955 39.875C976.658 39.875 977.217 39.7259 977.63 39.4276C978.048 39.125 978.256 38.7628 978.256 38.3409C978.256 38 978.137 37.7145 977.898 37.4844C977.66 37.25 977.293 37.0753 976.799 36.9602L975.163 36.5767C974.263 36.3636 973.603 36.0334 973.181 35.5859C972.763 35.1342 972.555 34.5696 972.555 33.892C972.555 33.3381 972.71 32.848 973.021 32.4219C973.337 31.9957 973.765 31.6612 974.306 31.4183C974.852 31.1754 975.469 31.054 976.16 31.054C977.131 31.054 977.894 31.267 978.448 31.6932C979.006 32.1193 979.403 32.6818 979.637 33.3807ZM982.447 41V31.1818H983.955V41H982.447ZM983.214 29.5455C982.92 29.5455 982.666 29.4453 982.453 29.245C982.244 29.0447 982.14 28.804 982.14 28.5227C982.14 28.2415 982.244 28.0007 982.453 27.8004C982.666 27.6001 982.92 27.5 983.214 27.5C983.508 27.5 983.759 27.6001 983.968 27.8004C984.181 28.0007 984.288 28.2415 984.288 28.5227C984.288 28.804 984.181 29.0447 983.968 29.245C983.759 29.4453 983.508 29.5455 983.214 29.5455ZM991.348 31.1818V32.4602H986.26V31.1818H991.348ZM987.743 28.8295H989.252V38.1875C989.252 38.6136 989.313 38.9332 989.437 39.1463C989.565 39.3551 989.727 39.4957 989.923 39.5682C990.123 39.6364 990.334 39.6705 990.556 39.6705C990.722 39.6705 990.858 39.6619 990.965 39.6449C991.071 39.6236 991.156 39.6065 991.22 39.5938L991.527 40.9489C991.425 40.9872 991.282 41.0256 991.099 41.0639C990.916 41.1065 990.683 41.1278 990.402 41.1278C989.976 41.1278 989.558 41.0362 989.149 40.853C988.744 40.6697 988.408 40.3906 988.139 40.0156C987.875 39.6406 987.743 39.1676 987.743 38.5966V28.8295ZM997.988 41.2045C997.042 41.2045 996.226 40.9957 995.54 40.5781C994.858 40.1562 994.332 39.5682 993.961 38.8139C993.595 38.0554 993.412 37.1733 993.412 36.1676C993.412 35.1619 993.595 34.2756 993.961 33.5085C994.332 32.7372 994.848 32.1364 995.508 31.706C996.173 31.2713 996.949 31.054 997.835 31.054C998.346 31.054 998.851 31.1392 999.35 31.3097C999.848 31.4801 1000.3 31.7571 1000.71 32.1406C1001.12 32.5199 1001.45 33.0227 1001.69 33.6491C1001.93 34.2756 1002.05 35.0469 1002.05 35.9631V36.6023H994.485V35.2983H1000.52C1000.52 34.7443 1000.41 34.25 1000.19 33.8153C999.97 33.3807 999.659 33.0376 999.254 32.7862C998.853 32.5348 998.38 32.4091 997.835 32.4091C997.234 32.4091 996.714 32.5582 996.275 32.8565C995.841 33.1506 995.506 33.5341 995.272 34.0071C995.037 34.4801 994.92 34.9872 994.92 35.5284V36.3977C994.92 37.1392 995.048 37.7678 995.304 38.2834C995.564 38.7947 995.924 39.1847 996.384 39.4531C996.844 39.7173 997.379 39.8494 997.988 39.8494C998.385 39.8494 998.743 39.794 999.062 39.6832C999.386 39.5682 999.665 39.3977 999.9 39.1719C1000.13 38.9418 1000.32 38.6562 1000.44 38.3153L1001.9 38.7244C1001.75 39.2188 1001.49 39.6534 1001.13 40.0284C1000.76 40.3991 1000.32 40.6889 999.784 40.8977C999.252 41.1023 998.653 41.2045 997.988 41.2045ZM1005.81 41.1023C1005.49 41.1023 1005.22 40.9893 1005 40.7635C1004.77 40.5376 1004.66 40.267 1004.66 39.9517C1004.66 39.6364 1004.77 39.3658 1005 39.1399C1005.22 38.9141 1005.49 38.8011 1005.81 38.8011C1006.12 38.8011 1006.39 38.9141 1006.62 39.1399C1006.85 39.3658 1006.96 39.6364 1006.96 39.9517C1006.96 40.1605 1006.91 40.3523 1006.8 40.527C1006.7 40.7017 1006.56 40.8423 1006.38 40.9489C1006.21 41.0511 1006.02 41.1023 1005.81 41.1023ZM1014.01 41.2045C1013.09 41.2045 1012.3 40.9872 1011.64 40.5526C1010.97 40.1179 1010.46 39.5192 1010.1 38.7564C1009.74 37.9936 1009.57 37.1222 1009.57 36.142C1009.57 35.1449 1009.75 34.2649 1010.11 33.5021C1010.49 32.7351 1011 32.1364 1011.66 31.706C1012.33 31.2713 1013.1 31.054 1013.99 31.054C1014.68 31.054 1015.3 31.1818 1015.85 31.4375C1016.41 31.6932 1016.86 32.0511 1017.22 32.5114C1017.57 32.9716 1017.79 33.5085 1017.87 34.1222H1016.37C1016.25 33.6747 1016 33.2784 1015.6 32.9332C1015.21 32.5838 1014.68 32.4091 1014.01 32.4091C1013.43 32.4091 1012.91 32.5625 1012.47 32.8693C1012.03 33.1719 1011.69 33.6001 1011.44 34.1541C1011.2 34.7038 1011.07 35.3494 1011.07 36.0909C1011.07 36.8494 1011.19 37.5099 1011.43 38.0724C1011.67 38.6349 1012.02 39.0717 1012.45 39.3828C1012.9 39.6939 1013.42 39.8494 1014.01 39.8494C1014.41 39.8494 1014.76 39.7812 1015.08 39.6449C1015.4 39.5085 1015.67 39.3125 1015.89 39.0568C1016.11 38.8011 1016.27 38.4943 1016.37 38.1364H1017.87C1017.79 38.7159 1017.58 39.2379 1017.24 39.7024C1016.91 40.1626 1016.47 40.5291 1015.92 40.8018C1015.37 41.0703 1014.74 41.2045 1014.01 41.2045ZM1024.43 41.2045C1023.54 41.2045 1022.76 40.9936 1022.1 40.5717C1021.43 40.1499 1020.91 39.5597 1020.54 38.8011C1020.17 38.0426 1019.98 37.1562 1019.98 36.142C1019.98 35.1193 1020.17 34.2266 1020.54 33.4638C1020.91 32.701 1021.43 32.1087 1022.1 31.6868C1022.76 31.2649 1023.54 31.054 1024.43 31.054C1025.32 31.054 1026.09 31.2649 1026.76 31.6868C1027.42 32.1087 1027.94 32.701 1028.32 33.4638C1028.69 34.2266 1028.88 35.1193 1028.88 36.142C1028.88 37.1562 1028.69 38.0426 1028.32 38.8011C1027.94 39.5597 1027.42 40.1499 1026.76 40.5717C1026.09 40.9936 1025.32 41.2045 1024.43 41.2045ZM1024.43 39.8494C1025.1 39.8494 1025.66 39.6768 1026.09 39.3317C1026.53 38.9865 1026.85 38.5327 1027.06 37.9702C1027.26 37.4077 1027.37 36.7983 1027.37 36.142C1027.37 35.4858 1027.26 34.8743 1027.06 34.3075C1026.85 33.7408 1026.53 33.2827 1026.09 32.9332C1025.66 32.5838 1025.1 32.4091 1024.43 32.4091C1023.76 32.4091 1023.2 32.5838 1022.77 32.9332C1022.33 33.2827 1022.01 33.7408 1021.8 34.3075C1021.59 34.8743 1021.49 35.4858 1021.49 36.142C1021.49 36.7983 1021.59 37.4077 1021.8 37.9702C1022.01 38.5327 1022.33 38.9865 1022.77 39.3317C1023.2 39.6768 1023.76 39.8494 1024.43 39.8494ZM1031.54 41V31.1818H1033V32.7159H1033.13C1033.33 32.1918 1033.66 31.7848 1034.12 31.495C1034.57 31.201 1035.12 31.054 1035.76 31.054C1036.41 31.054 1036.95 31.201 1037.38 31.495C1037.81 31.7848 1038.15 32.1918 1038.39 32.7159H1038.49C1038.75 32.2088 1039.12 31.8061 1039.63 31.5078C1040.13 31.2053 1040.73 31.054 1041.44 31.054C1042.31 31.054 1043.03 31.3288 1043.59 31.8786C1044.15 32.424 1044.43 33.2741 1044.43 34.429V41H1042.92V34.429C1042.92 33.7045 1042.72 33.1868 1042.32 32.8757C1041.93 32.5646 1041.46 32.4091 1040.92 32.4091C1040.23 32.4091 1039.7 32.6179 1039.32 33.0355C1038.94 33.4489 1038.75 33.973 1038.75 34.608V41H1037.22V34.2756C1037.22 33.7173 1037.04 33.2678 1036.67 32.9268C1036.31 32.5817 1035.84 32.4091 1035.27 32.4091C1034.88 32.4091 1034.51 32.5135 1034.17 32.7223C1033.84 32.9311 1033.56 33.2209 1033.36 33.5916C1033.15 33.9581 1033.05 34.3821 1033.05 34.8636V41H1031.54ZM1052.17 27.2955L1047.95 42.9688H1046.57L1050.79 27.2955H1052.17ZM1055.83 35.0938V41H1054.32V27.9091H1055.83V32.7159H1055.96C1056.19 32.2088 1056.53 31.8061 1056.99 31.5078C1057.46 31.2053 1058.08 31.054 1058.85 31.054C1059.52 31.054 1060.1 31.1882 1060.6 31.4567C1061.11 31.7209 1061.5 32.1278 1061.77 32.6776C1062.06 33.223 1062.2 33.9176 1062.2 34.7614V41H1060.69V34.8636C1060.69 34.0838 1060.48 33.4808 1060.08 33.0547C1059.68 32.6243 1059.12 32.4091 1058.41 32.4091C1057.92 32.4091 1057.47 32.5135 1057.08 32.7223C1056.69 32.9311 1056.39 33.2358 1056.16 33.6364C1055.94 34.0369 1055.83 34.5227 1055.83 35.0938ZM1069.3 41.2045C1068.42 41.2045 1067.64 40.9936 1066.97 40.5717C1066.31 40.1499 1065.79 39.5597 1065.41 38.8011C1065.04 38.0426 1064.86 37.1562 1064.86 36.142C1064.86 35.1193 1065.04 34.2266 1065.41 33.4638C1065.79 32.701 1066.31 32.1087 1066.97 31.6868C1067.64 31.2649 1068.42 31.054 1069.3 31.054C1070.19 31.054 1070.97 31.2649 1071.63 31.6868C1072.3 32.1087 1072.82 32.701 1073.19 33.4638C1073.57 34.2266 1073.75 35.1193 1073.75 36.142C1073.75 37.1562 1073.57 38.0426 1073.19 38.8011C1072.82 39.5597 1072.3 40.1499 1071.63 40.5717C1070.97 40.9936 1070.19 41.2045 1069.3 41.2045ZM1069.3 39.8494C1069.98 39.8494 1070.53 39.6768 1070.97 39.3317C1071.4 38.9865 1071.72 38.5327 1071.93 37.9702C1072.14 37.4077 1072.24 36.7983 1072.24 36.142C1072.24 35.4858 1072.14 34.8743 1071.93 34.3075C1071.72 33.7408 1071.4 33.2827 1070.97 32.9332C1070.53 32.5838 1069.98 32.4091 1069.3 32.4091C1068.63 32.4091 1068.08 32.5838 1067.64 32.9332C1067.21 33.2827 1066.89 33.7408 1066.68 34.3075C1066.47 34.8743 1066.36 35.4858 1066.36 36.142C1066.36 36.7983 1066.47 37.4077 1066.68 37.9702C1066.89 38.5327 1067.21 38.9865 1067.64 39.3317C1068.08 39.6768 1068.63 39.8494 1069.3 39.8494ZM1076.42 41V31.1818H1077.87V32.7159H1078C1078.21 32.1918 1078.54 31.7848 1078.99 31.495C1079.45 31.201 1080 31.054 1080.63 31.054C1081.28 31.054 1081.82 31.201 1082.25 31.495C1082.69 31.7848 1083.03 32.1918 1083.27 32.7159H1083.37C1083.62 32.2088 1084 31.8061 1084.5 31.5078C1085 31.2053 1085.61 31.054 1086.31 31.054C1087.19 31.054 1087.91 31.3288 1088.46 31.8786C1089.02 32.424 1089.3 33.2741 1089.3 34.429V41H1087.79V34.429C1087.79 33.7045 1087.6 33.1868 1087.2 32.8757C1086.8 32.5646 1086.34 32.4091 1085.8 32.4091C1085.11 32.4091 1084.57 32.6179 1084.2 33.0355C1083.82 33.4489 1083.63 33.973 1083.63 34.608V41H1082.09V34.2756C1082.09 33.7173 1081.91 33.2678 1081.55 32.9268C1081.19 32.5817 1080.72 32.4091 1080.15 32.4091C1079.76 32.4091 1079.39 32.5135 1079.05 32.7223C1078.71 32.9311 1078.44 33.2209 1078.23 33.5916C1078.03 33.9581 1077.92 34.3821 1077.92 34.8636V41H1076.42ZM1096.54 41.2045C1095.59 41.2045 1094.77 40.9957 1094.09 40.5781C1093.41 40.1562 1092.88 39.5682 1092.51 38.8139C1092.14 38.0554 1091.96 37.1733 1091.96 36.1676C1091.96 35.1619 1092.14 34.2756 1092.51 33.5085C1092.88 32.7372 1093.4 32.1364 1094.06 31.706C1094.72 31.2713 1095.5 31.054 1096.38 31.054C1096.89 31.054 1097.4 31.1392 1097.9 31.3097C1098.4 31.4801 1098.85 31.7571 1099.26 32.1406C1099.67 32.5199 1100 33.0227 1100.24 33.6491C1100.48 34.2756 1100.6 35.0469 1100.6 35.9631V36.6023H1093.03V35.2983H1099.07C1099.07 34.7443 1098.96 34.25 1098.74 33.8153C1098.52 33.3807 1098.21 33.0376 1097.8 32.7862C1097.4 32.5348 1096.93 32.4091 1096.38 32.4091C1095.78 32.4091 1095.26 32.5582 1094.82 32.8565C1094.39 33.1506 1094.05 33.5341 1093.82 34.0071C1093.59 34.4801 1093.47 34.9872 1093.47 35.5284V36.3977C1093.47 37.1392 1093.6 37.7678 1093.85 38.2834C1094.11 38.7947 1094.47 39.1847 1094.93 39.4531C1095.39 39.7173 1095.93 39.8494 1096.54 39.8494C1096.93 39.8494 1097.29 39.794 1097.61 39.6832C1097.93 39.5682 1098.21 39.3977 1098.45 39.1719C1098.68 38.9418 1098.86 38.6562 1098.99 38.3153L1100.45 38.7244C1100.3 39.2188 1100.04 39.6534 1099.68 40.0284C1099.31 40.3991 1098.87 40.6889 1098.33 40.8977C1097.8 41.1023 1097.2 41.2045 1096.54 41.2045Z" fill="white"/>
<path d="M683 48C683.213 48 683.532 47.9263 683.827 47.7543C690.636 43.9091 693 42.1278 693 37.656V28.3808C693 26.9066 692.444 26.3784 691.262 25.8501C689.95 25.2727 685.541 23.6757 684.253 23.2211C683.863 23.086 683.402 23 683 23C682.598 23 682.137 23.1106 681.747 23.2211C680.459 23.602 676.05 25.285 674.738 25.8501C673.556 26.3661 673 26.9066 673 28.3808V37.656C673 42.1278 675.376 43.8845 682.161 47.7543C682.468 47.9263 682.787 48 683 48ZM683.638 25.4816C685.187 26.1204 688.556 27.3612 690.329 28.0123C690.66 28.1474 690.742 28.3317 690.742 28.774V37.2015C690.742 40.801 689.005 41.7715 683.674 45.113C683.343 45.3219 683.177 45.3956 683.012 45.3956V25.3464C683.177 25.3464 683.355 25.3833 683.638 25.4816Z" fill="#B7B7B7"/>
<path d="M167.704 46H186.967C189.41 46 190.682 44.6816 190.682 42.1627V27.8373C190.682 25.3184 189.41 24 186.967 24H167.704C165.272 24 164 25.3066 164 27.8373V42.1627C164 44.6816 165.272 46 167.704 46ZM167.85 43.6576C166.815 43.6576 166.24 43.0926 166.24 41.9508V28.0492C166.24 26.9074 166.815 26.3424 167.85 26.3424H172.984V43.6576H167.85ZM186.821 26.3424C187.856 26.3424 188.43 26.9074 188.43 28.0492V41.9508C188.43 43.0926 187.856 43.6576 186.821 43.6576H175.112V26.3424H186.821ZM170.777 30.6506C171.183 30.6506 171.521 30.2857 171.521 29.8855C171.521 29.4853 171.183 29.1322 170.777 29.1322H168.47C168.064 29.1322 167.726 29.4853 167.726 29.8855C167.726 30.2857 168.064 30.6506 168.47 30.6506H170.777ZM170.777 33.817C171.183 33.817 171.521 33.4639 171.521 33.0519C171.521 32.6517 171.183 32.2986 170.777 32.2986H168.47C168.064 32.2986 167.726 32.6517 167.726 33.0519C167.726 33.4639 168.064 33.817 168.47 33.817H170.777ZM170.777 36.9716C171.183 36.9716 171.521 36.6303 171.521 36.2183C171.521 35.8181 171.183 35.4767 170.777 35.4767H168.47C168.064 35.4767 167.726 35.8181 167.726 36.2183C167.726 36.6303 168.064 36.9716 168.47 36.9716H170.777Z" fill="#B7B7B7"/>
<path d="M233.711 45.4038L225.468 36.973C225.181 36.6739 225.033 36.3415 225.033 35.9538C225.033 35.566 225.181 35.2115 225.478 34.9235L233.722 26.5038C233.955 26.26 234.252 26.1271 234.591 26.1271C235.301 26.1271 235.852 26.7032 235.852 27.4344C235.852 27.7889 235.714 28.1323 235.47 28.3871L228.053 35.9427L235.47 43.5205C235.714 43.7753 235.852 44.1076 235.852 44.4732C235.852 45.2044 235.301 45.7805 234.591 45.7805C234.252 45.7805 233.955 45.6476 233.711 45.4038Z" fill="#B7B7B7"/>
<path d="M274.442 45.7805C274.792 45.7805 275.078 45.6476 275.322 45.4038L283.566 36.9841C283.852 36.6739 284 36.3526 284 35.9538C284 35.566 283.862 35.2226 283.566 34.9346L275.322 26.5038C275.078 26.26 274.792 26.1271 274.442 26.1271C273.732 26.1271 273.181 26.7032 273.181 27.4344C273.181 27.7889 273.33 28.1323 273.563 28.3871L280.991 35.9649L273.563 43.5205C273.319 43.7864 273.181 44.1076 273.181 44.4732C273.181 45.2044 273.732 45.7805 274.442 45.7805Z" fill="#5A5A5A"/>
<circle cx="118" cy="35" r="12" fill="#17CC36"/>
<circle cx="76" cy="35" r="12" fill="#FCBC08"/>
<circle cx="34" cy="35" r="12" fill="#FE614D"/>
</g>
</g>
</g>
<defs>
<filter id="filter0_di_776_3" x="-1" y="0" width="1922" height="72" filterUnits="userSpaceOnUse" color-interpolation-filters="sRGB">
<feFlood flood-opacity="0" result="BackgroundImageFix"/>
<feColorMatrix in="SourceAlpha" type="matrix" values="0 0 0 0 0 0 0 0 0 0 0 0 0 0 0 0 0 0 127 0" result="hardAlpha"/>
<feOffset dy="1"/>
<feGaussianBlur stdDeviation="0.5"/>
<feComposite in2="hardAlpha" operator="out"/>
<feColorMatrix type="matrix" values="0 0 0 0 0.239216 0 0 0 0 0.239216 0 0 0 0 0.239216 0 0 0 1 0"/>
<feBlend mode="normal" in2="BackgroundImageFix" result="effect1_dropShadow_776_3"/>
<feBlend mode="normal" in="SourceGraphic" in2="effect1_dropShadow_776_3" result="shape"/>
<feColorMatrix in="SourceAlpha" type="matrix" values="0 0 0 0 0 0 0 0 0 0 0 0 0 0 0 0 0 0 127 0" result="hardAlpha"/>
<feOffset dy="1"/>
<feGaussianBlur stdDeviation="0.5"/>
<feComposite in2="hardAlpha" operator="arithmetic" k2="-1" k3="1"/>
<feColorMatrix type="matrix" values="0 0 0 0 0.239216 0 0 0 0 0.239216 0 0 0 0 0.239216 0 0 0 1 0"/>
<feBlend mode="normal" in2="shape" result="effect2_innerShadow_776_3"/>
</filter>
<filter id="filter1_di_776_3" x="-1" y="0" width="1922" height="72" filterUnits="userSpaceOnUse" color-interpolation-filters="sRGB">
<feFlood flood-opacity="0" result="BackgroundImageFix"/>
<feColorMatrix in="SourceAlpha" type="matrix" values="0 0 0 0 0 0 0 0 0 0 0 0 0 0 0 0 0 0 127 0" result="hardAlpha"/>
<feOffset dy="1"/>
<feGaussianBlur stdDeviation="0.5"/>
<feComposite in2="hardAlpha" operator="out"/>
<feColorMatrix type="matrix" values="0 0 0 0 0.239216 0 0 0 0 0.239216 0 0 0 0 0.239216 0 0 0 1 0"/>
<feBlend mode="normal" in2="BackgroundImageFix" result="effect1_dropShadow_776_3"/>
<feBlend mode="normal" in="SourceGraphic" in2="effect1_dropShadow_776_3" result="shape"/>
<feColorMatrix in="SourceAlpha" type="matrix" values="0 0 0 0 0 0 0 0 0 0 0 0 0 0 0 0 0 0 127 0" result="hardAlpha"/>
<feOffset dy="1"/>
<feGaussianBlur stdDeviation="0.5"/>
<feComposite in2="hardAlpha" operator="arithmetic" k2="-1" k3="1"/>
<feColorMatrix type="matrix" values="0 0 0 0 0.239216 0 0 0 0 0.239216 0 0 0 0 0.239216 0 0 0 1 0"/>
<feBlend mode="normal" in2="shape" result="effect2_innerShadow_776_3"/>
</filter>
<linearGradient id="paint0_linear_776_3" x1="960" y1="0" x2="960" y2="70" gradientUnits="userSpaceOnUse">
<stop stop-color="#212121"/>
<stop offset="1" stop-color="#1E1E1E"/>
</linearGradient>
<clipPath id="clip0_776_3">
<rect width="1920" height="1150" rx="16" fill="white"/>
</clipPath>
<clipPath id="clip1_776_3">
<path d="M0 16C0 7.16344 7.16345 0 16 0H1904C1912.84 0 1920 7.16344 1920 16V70H0V16Z" fill="white"/>
</clipPath>
</defs>
</svg>
