<svg width="308" height="308" viewBox="0 0 308 308" fill="none" xmlns="http://www.w3.org/2000/svg">
<g clip-path="url(#clip0_760_119)">
<path d="M308 175.25C306.315 174.706 301.596 172.965 296.203 170.354C289.461 167.089 283.843 158.384 279.349 153.488C274.855 148.592 265.304 158.384 260.81 153.488C256.316 148.592 252.945 134.99 250.136 122.477C247.327 109.964 235.53 104.523 233.283 72.4243C231.036 40.3253 213.059 39.7812 206.317 64.2636C199.576 88.7459 197.89 90.9221 187.217 109.42C176.543 127.918 169.24 174.162 164.183 184.499C159.127 194.836 143.959 192.116 134.409 198.644C124.859 205.173 123.735 234.008 111.938 230.743C100.14 227.479 96.2077 217.142 84.972 210.613C75.9835 205.391 61.3886 208.068 50.5542 212.565C39.7198 217.061 39.7198 220.059 27.3376 220.059C14.9554 220.059 6.70065 212.16 -0.00635856 210.613C-5.37197 209.376 -12.9045 210.098 -16 210.613" stroke="url(#paint0_linear_760_119)" stroke-width="2"/>
<path d="M84.972 210.613C75.9835 205.391 61.3886 208.068 50.5542 212.565C39.7198 217.061 39.7198 220.059 27.3376 220.059C14.9554 220.059 6.70065 212.16 -0.00635815 210.613C-5.37197 209.376 -12.9045 210.098 -16 210.613L-0.00635815 307.5H308V175.25C306.315 174.706 301.596 172.965 296.203 170.354C289.461 167.089 283.843 158.384 279.349 153.488C274.855 148.592 265.304 158.384 260.81 153.488C256.316 148.592 252.945 134.99 250.136 122.477C247.327 109.964 235.53 104.523 233.283 72.4243C231.036 40.3253 213.059 39.7812 206.317 64.2636C199.576 88.7459 197.89 90.9221 187.217 109.42C176.543 127.918 169.24 174.162 164.183 184.499C159.127 194.836 143.959 192.116 134.409 198.644C124.859 205.173 123.735 234.008 111.938 230.743C100.14 227.479 96.2077 217.142 84.972 210.613Z" fill="url(#paint1_linear_760_119)"/>
<path d="M55.6483 108.35C54.0248 108.35 52.6217 108.083 51.4392 107.548C50.2767 106.993 49.2845 106.26 48.4627 105.348L50.0862 103.951C50.8278 104.724 51.6396 105.319 52.5215 105.735C53.4034 106.151 54.4658 106.359 55.7085 106.359C56.9111 106.359 57.8932 106.151 58.6549 105.735C59.4366 105.299 59.8274 104.625 59.8274 103.714C59.8274 103.317 59.7472 102.991 59.5869 102.733C59.4466 102.456 59.2461 102.238 58.9856 102.079C58.725 101.921 58.4344 101.802 58.1137 101.722C57.793 101.623 57.4522 101.544 57.0915 101.485L54.6562 101.128C54.115 101.049 53.5237 100.94 52.8823 100.801C52.261 100.662 51.6897 100.444 51.1686 100.147C50.6475 99.8302 50.2065 99.4141 49.8457 98.8989C49.505 98.3838 49.3346 97.7101 49.3346 96.8779C49.3346 96.1051 49.4849 95.4414 49.7856 94.8866C50.1063 94.312 50.5472 93.8364 51.1085 93.46C51.6697 93.0637 52.3311 92.7764 53.0928 92.5981C53.8544 92.3999 54.6862 92.3009 55.5882 92.3009C56.9912 92.3009 58.2039 92.5188 59.2261 92.9547C60.2684 93.3906 61.1603 93.995 61.9019 94.7677L60.3385 96.224C60.1581 96.0061 59.9276 95.7881 59.647 95.5702C59.3864 95.3324 59.0557 95.1244 58.6549 94.946C58.274 94.7479 57.823 94.5894 57.3019 94.4705C56.7808 94.3516 56.1795 94.2922 55.498 94.2922C54.2753 94.2922 53.3333 94.5002 52.6719 94.9163C52.0305 95.3324 51.7098 95.9367 51.7098 96.7293C51.7098 97.1256 51.7799 97.4624 51.9202 97.7398C52.0806 97.9974 52.291 98.2054 52.5516 98.3639C52.8122 98.5225 53.1028 98.6512 53.4235 98.7503C53.7642 98.8296 54.105 98.8989 54.4457 98.9584L56.881 99.315C57.4422 99.3943 58.0335 99.5032 58.6549 99.6419C59.2762 99.7806 59.8474 100.009 60.3686 100.326C60.8897 100.623 61.3206 101.029 61.6614 101.544C62.0222 102.059 62.2026 102.733 62.2026 103.565C62.2026 105.091 61.6013 106.27 60.3986 107.102C59.2161 107.934 57.6326 108.35 55.6483 108.35Z" fill="white"/>
<path d="M78.1555 107.994C77.2135 107.994 76.542 107.756 76.1411 107.28C75.7403 106.805 75.4897 106.21 75.3895 105.497H75.2392C74.8984 106.389 74.3472 107.092 73.5856 107.607C72.844 108.103 71.8418 108.35 70.579 108.35C68.9555 108.35 67.6627 107.934 66.7006 107.102C65.7385 106.27 65.2575 105.13 65.2575 103.684C65.2575 102.257 65.7786 101.158 66.8209 100.385C67.8832 99.6122 69.5869 99.2259 71.932 99.2259H75.2392V97.7101C75.2392 96.5807 74.9185 95.7386 74.2771 95.1838C73.6357 94.6092 72.7237 94.3219 71.5411 94.3219C70.4989 94.3219 69.647 94.5299 68.9856 94.946C68.3241 95.3423 67.793 95.8872 67.3921 96.5807L65.7686 95.3918C65.969 94.9956 66.2396 94.6092 66.5804 94.2327C66.9211 93.8563 67.342 93.5293 67.8431 93.2519C68.3442 92.9547 68.9154 92.7269 69.5568 92.5683C70.1982 92.39 70.9098 92.3009 71.6915 92.3009C73.5154 92.3009 74.9586 92.7566 76.0209 93.668C77.1032 94.5795 77.6444 95.8476 77.6444 97.4723V105.913H79.8091V107.994H78.1555ZM71 106.359C71.6213 106.359 72.1825 106.29 72.6836 106.151C73.2048 105.992 73.6557 105.794 74.0366 105.556C74.4174 105.299 74.708 105.002 74.9085 104.665C75.1289 104.308 75.2392 103.932 75.2392 103.535V101.009H71.932C70.4888 101.009 69.4366 101.207 68.7751 101.604C68.1137 102 67.783 102.574 67.783 103.327V103.951C67.783 104.744 68.0636 105.348 68.6248 105.764C69.2061 106.161 69.9978 106.359 71 106.359Z" fill="white"/>
<path d="M82.5032 105.973H87.915V88.021H82.5032V86H90.3202V105.973H95.732V107.994H82.5032V105.973Z" fill="white"/>
<path d="M106.213 108.35C105.091 108.35 104.078 108.162 103.176 107.786C102.295 107.409 101.533 106.874 100.891 106.181C100.27 105.467 99.7891 104.625 99.4483 103.654C99.1076 102.664 98.9372 101.564 98.9372 100.355C98.9372 99.1268 99.1076 98.0172 99.4483 97.0265C99.8091 96.0358 100.3 95.1937 100.922 94.5002C101.543 93.7869 102.284 93.242 103.146 92.8656C104.028 92.4891 105 92.3009 106.063 92.3009C107.105 92.3009 108.047 92.4891 108.889 92.8656C109.751 93.242 110.482 93.7671 111.084 94.4408C111.685 95.0946 112.146 95.8773 112.467 96.7887C112.787 97.7002 112.948 98.7008 112.948 99.7906V100.92H101.463V101.633C101.463 102.307 101.573 102.931 101.793 103.506C102.014 104.08 102.325 104.576 102.725 104.992C103.146 105.408 103.647 105.735 104.229 105.973C104.83 106.19 105.491 106.299 106.213 106.299C107.255 106.299 108.157 106.062 108.919 105.586C109.681 105.111 110.262 104.457 110.663 103.625L112.437 104.813C111.976 105.844 111.204 106.696 110.122 107.369C109.059 108.023 107.756 108.35 106.213 108.35ZM106.063 94.2624C105.401 94.2624 104.79 94.3813 104.229 94.6191C103.667 94.8569 103.176 95.1838 102.756 95.5999C102.355 96.016 102.034 96.5113 101.793 97.0859C101.573 97.6407 101.463 98.255 101.463 98.9286V99.1367H110.362V98.8098C110.362 98.1361 110.252 97.5218 110.031 96.9671C109.831 96.4123 109.54 95.9367 109.159 95.5404C108.799 95.1244 108.348 94.8073 107.806 94.5894C107.285 94.3714 106.704 94.2624 106.063 94.2624Z" fill="white"/>
<path d="M122.948 108.35C121.324 108.35 119.921 108.083 118.739 107.548C117.576 106.993 116.584 106.26 115.762 105.348L117.386 103.951C118.127 104.724 118.939 105.319 119.821 105.735C120.703 106.151 121.765 106.359 123.008 106.359C124.21 106.359 125.193 106.151 125.954 105.735C126.736 105.299 127.127 104.625 127.127 103.714C127.127 103.317 127.047 102.991 126.886 102.733C126.746 102.456 126.545 102.238 126.285 102.079C126.024 101.921 125.734 101.802 125.413 101.722C125.092 101.623 124.752 101.544 124.391 101.485L121.956 101.128C121.414 101.049 120.823 100.94 120.182 100.801C119.56 100.662 118.989 100.444 118.468 100.147C117.947 99.8302 117.506 99.4141 117.145 98.8989C116.804 98.3838 116.634 97.7101 116.634 96.8779C116.634 96.1051 116.784 95.4414 117.085 94.8866C117.406 94.312 117.847 93.8364 118.408 93.46C118.969 93.0637 119.63 92.7764 120.392 92.5981C121.154 92.3999 121.986 92.3009 122.888 92.3009C124.291 92.3009 125.503 92.5188 126.525 92.9547C127.568 93.3906 128.46 93.995 129.201 94.7677L127.638 96.224C127.457 96.0061 127.227 95.7881 126.946 95.5702C126.686 95.3324 126.355 95.1244 125.954 94.946C125.573 94.7479 125.122 94.5894 124.601 94.4705C124.08 94.3516 123.479 94.2922 122.797 94.2922C121.575 94.2922 120.633 94.5002 119.971 94.9163C119.33 95.3324 119.009 95.9367 119.009 96.7293C119.009 97.1256 119.079 97.4624 119.22 97.7398C119.38 97.9974 119.59 98.2054 119.851 98.3639C120.112 98.5225 120.402 98.6512 120.723 98.7503C121.064 98.8296 121.404 98.8989 121.745 98.9584L124.18 99.315C124.742 99.3943 125.333 99.5032 125.954 99.6419C126.576 99.7806 127.147 100.009 127.668 100.326C128.189 100.623 128.62 101.029 128.961 101.544C129.322 102.059 129.502 102.733 129.502 103.565C129.502 105.091 128.901 106.27 127.698 107.102C126.515 107.934 124.932 108.35 122.948 108.35Z" fill="white"/>
<path d="M28.2889 124.11L26.4248 125.952L24.1699 123.694L22.9673 122.297L22.8471 122.327L23.0274 125.001V138.643H20.2614V125.001L20.4418 122.327L20.3216 122.297L19.1189 123.694L16.8641 125.952L15 124.11L21.6444 117.541L28.2889 124.11Z" fill="white"/>
<path d="M51.1451 138.643L44.9516 130.559H41.2235V128.003H45.7333C46.7956 128.003 47.6675 127.785 48.349 127.349C49.0305 126.913 49.3913 126.2 49.4314 125.209H41.2235V122.861H49.3712C49.271 122.049 48.8802 121.445 48.1987 121.049C47.5373 120.652 46.7155 120.454 45.7333 120.454H41.2235V117.898H56.4366V120.454H50.4536V120.603C50.8545 120.741 51.2353 120.989 51.5961 121.346C51.9769 121.702 52.2675 122.208 52.468 122.861H56.4366V125.209H52.7085C52.6083 126.458 52.1974 127.508 51.4758 128.36C50.7743 129.212 49.8022 129.806 48.5595 130.143L55.1739 138.643H51.1451Z" fill="white"/>
<path d="M73.051 120.781H63.5203L62.9791 128.152H63.2196C63.7007 127.339 64.2819 126.696 64.9634 126.22C65.6449 125.725 66.5769 125.477 67.7595 125.477C68.6614 125.477 69.4932 125.626 70.2549 125.923C71.0366 126.22 71.7081 126.646 72.2693 127.201C72.8505 127.756 73.3015 128.439 73.6222 129.252C73.963 130.044 74.1333 130.946 74.1333 131.956C74.1333 132.986 73.963 133.938 73.6222 134.809C73.2815 135.661 72.7904 136.404 72.149 137.038C71.5076 137.653 70.7159 138.138 69.7739 138.495C68.8318 138.832 67.7595 139 66.5569 139C65.6148 139 64.773 138.891 64.0314 138.673C63.3098 138.475 62.6584 138.207 62.0771 137.871C61.5159 137.514 61.0248 137.118 60.6039 136.682C60.183 136.226 59.8122 135.76 59.4915 135.285L61.9569 133.383C62.2174 133.779 62.488 134.155 62.7686 134.512C63.0693 134.849 63.4 135.146 63.7608 135.404C64.1216 135.661 64.5325 135.859 64.9935 135.998C65.4745 136.137 66.0157 136.206 66.617 136.206C67.9198 136.206 68.912 135.859 69.5935 135.166C70.2749 134.453 70.6157 133.492 70.6157 132.283V132.045C70.6157 130.837 70.2649 129.895 69.5634 129.222C68.8819 128.548 67.8998 128.211 66.617 128.211C65.675 128.211 64.9333 128.38 64.3922 128.717C63.851 129.053 63.38 129.43 62.9791 129.846L60.183 129.46L60.9647 117.898H73.051V120.781Z" fill="white"/>
<path d="M78.9621 138.643V117.898H82.3294V135.85H91.8902V138.643H78.9621Z" fill="white"/>
<path d="M108.535 138.643C107.593 138.643 106.881 138.406 106.4 137.93C105.939 137.455 105.658 136.83 105.558 136.058H105.408C105.107 136.989 104.556 137.712 103.754 138.227C102.973 138.742 101.97 139 100.748 139C99.1643 139 97.9015 138.594 96.9595 137.781C96.0174 136.949 95.5464 135.81 95.5464 134.364C95.5464 132.877 96.0976 131.748 97.2 130.975C98.3225 130.183 100.036 129.786 102.341 129.786H105.318V128.598C105.318 126.517 104.205 125.477 101.98 125.477C100.978 125.477 100.166 125.675 99.5451 126.071C98.9238 126.448 98.4026 126.953 97.9817 127.587L96.0275 126.012C96.4684 125.18 97.21 124.466 98.2523 123.872C99.2946 123.258 100.637 122.951 102.281 122.951C104.245 122.951 105.789 123.416 106.911 124.348C108.034 125.279 108.595 126.626 108.595 128.39V136.087H110.549V138.643H108.535ZM101.68 136.622C102.742 136.622 103.614 136.385 104.295 135.909C104.977 135.433 105.318 134.819 105.318 134.066V131.837H102.401C100.036 131.837 98.8536 132.541 98.8536 133.947V134.542C98.8536 135.235 99.1041 135.76 99.6052 136.117C100.106 136.454 100.798 136.622 101.68 136.622Z" fill="white"/>
<path d="M114.416 116.65H117.693V129.935H117.843L120.278 127.468L124.638 123.307H128.516L122.233 129.341L129.208 138.643H125.269L119.858 131.183L117.693 133.175V138.643H114.416V116.65Z" fill="white"/>
<path d="M132.323 116.65H135.6V125.923H135.75C135.911 125.526 136.111 125.15 136.352 124.793C136.612 124.417 136.923 124.1 137.284 123.842C137.644 123.565 138.065 123.347 138.546 123.188C139.027 123.03 139.589 122.951 140.23 122.951C141.793 122.951 143.056 123.456 144.018 124.466C144.98 125.477 145.461 126.913 145.461 128.776V138.643H142.184V129.252C142.184 126.814 141.112 125.596 138.967 125.596C138.546 125.596 138.136 125.655 137.735 125.774C137.334 125.873 136.973 126.032 136.652 126.25C136.332 126.468 136.071 126.745 135.871 127.082C135.69 127.419 135.6 127.805 135.6 128.241V138.643H132.323V116.65Z" fill="white"/>
<path d="M155.371 136.801V130.886H149.689V128.241H155.371V122.327H158.318V128.241H164V130.886H158.318V136.801H155.371Z" fill="white"/>
</g>
<defs>
<linearGradient id="paint0_linear_760_119" x1="-2.97471e-07" y1="47" x2="308" y2="47" gradientUnits="userSpaceOnUse">
<stop stop-color="white" stop-opacity="0"/>
<stop offset="0.495954" stop-color="white"/>
<stop offset="1" stop-color="white" stop-opacity="0"/>
</linearGradient>
<linearGradient id="paint1_linear_760_119" x1="154" y1="-107" x2="154" y2="308" gradientUnits="userSpaceOnUse">
<stop stop-color="white"/>
<stop offset="1" stop-color="white" stop-opacity="0"/>
</linearGradient>
<clipPath id="clip0_760_119">
<rect width="308" height="308" fill="white"/>
</clipPath>
</defs>
</svg>
