<svg width="98" height="24" viewBox="0 0 98 24" fill="none" xmlns="http://www.w3.org/2000/svg">
<g clip-path="url(#clip0_3459_15)">
<path d="M4.73096 19.5142H18.9336C20.7349 19.5142 21.6729 18.5845 21.6729 16.8081V6.70605C21.6729 4.92969 20.7349 4 18.9336 4H4.73096C2.93799 4 2 4.92139 2 6.70605V16.8081C2 18.5845 2.93799 19.5142 4.73096 19.5142ZM4.83887 17.8623C4.0752 17.8623 3.65186 17.4639 3.65186 16.6587V6.85547C3.65186 6.05029 4.0752 5.65186 4.83887 5.65186H8.62402V17.8623H4.83887ZM18.8257 5.65186C19.5894 5.65186 20.0127 6.05029 20.0127 6.85547V16.6587C20.0127 17.4639 19.5894 17.8623 18.8257 17.8623H10.1929V5.65186H18.8257ZM6.99707 8.68994C7.2959 8.68994 7.54492 8.43262 7.54492 8.15039C7.54492 7.86816 7.2959 7.61914 6.99707 7.61914H5.29541C4.99658 7.61914 4.74756 7.86816 4.74756 8.15039C4.74756 8.43262 4.99658 8.68994 5.29541 8.68994H6.99707ZM6.99707 10.9229C7.2959 10.9229 7.54492 10.6738 7.54492 10.3833C7.54492 10.1011 7.2959 9.85205 6.99707 9.85205H5.29541C4.99658 9.85205 4.74756 10.1011 4.74756 10.3833C4.74756 10.6738 4.99658 10.9229 5.29541 10.9229H6.99707ZM6.99707 13.1475C7.2959 13.1475 7.54492 12.9067 7.54492 12.6162C7.54492 12.334 7.2959 12.0933 6.99707 12.0933H5.29541C4.99658 12.0933 4.74756 12.334 4.74756 12.6162C4.74756 12.9067 4.99658 13.1475 5.29541 13.1475H6.99707Z" fill="#B7B7B7"/>
<path d="M53.3984 19.0938L47.3203 13.1484C47.1094 12.9375 47 12.7031 47 12.4297C47 12.1562 47.1094 11.9062 47.3281 11.7031L53.4062 5.76562C53.5781 5.59375 53.7969 5.5 54.0469 5.5C54.5703 5.5 54.9766 5.90625 54.9766 6.42188C54.9766 6.67188 54.875 6.91406 54.6953 7.09375L49.2266 12.4219L54.6953 17.7656C54.875 17.9453 54.9766 18.1797 54.9766 18.4375C54.9766 18.9531 54.5703 19.3594 54.0469 19.3594C53.7969 19.3594 53.5781 19.2656 53.3984 19.0938Z" fill="#B7B7B7"/>
<path d="M83.4297 19.3594C83.6875 19.3594 83.8984 19.2656 84.0781 19.0938L90.1562 13.1562C90.3672 12.9375 90.4766 12.7109 90.4766 12.4297C90.4766 12.1562 90.375 11.9141 90.1562 11.7109L84.0781 5.76562C83.8984 5.59375 83.6875 5.5 83.4297 5.5C82.9062 5.5 82.5 5.90625 82.5 6.42188C82.5 6.67188 82.6094 6.91406 82.7812 7.09375L88.2578 12.4375L82.7812 17.7656C82.6016 17.9531 82.5 18.1797 82.5 18.4375C82.5 18.9531 82.9062 19.3594 83.4297 19.3594Z" fill="#5A5A5A"/>
</g>
<defs>
<clipPath id="clip0_3459_15">
<rect width="98" height="24" fill="white"/>
</clipPath>
</defs>
</svg>