<svg
  class="lock"
  width="9"
  height="13"
  viewBox="0 0 9 13"
  fill="none"
  xmlns="http://www.w3.org/2000/svg"
>
  <path
    d="M1.64453 12.4121H7.32812C8.11328 12.4121 8.5 12.0254 8.5 11.1699V6.78125C8.5 6.00781 8.18359 5.61523 7.52734 5.55078V4.10352C7.52734 1.87695 6.04492 0.804688 4.48633 0.804688C2.92773 0.804688 1.44531 1.87695 1.44531 4.10352V5.56836C0.835938 5.66211 0.472656 6.04883 0.472656 6.78125V11.1699C0.472656 12.0254 0.859375 12.4121 1.64453 12.4121ZM2.57031 3.99805C2.57031 2.63281 3.4375 1.88281 4.48633 1.88281C5.5293 1.88281 6.40234 2.63281 6.40234 3.99805V5.53906L2.57031 5.54492V3.99805Z"
    fill="#dee7f1"
  />
</svg>
