<svg
  class="icon-clockwise-arrow"
  width="14"
  height="14"
  viewBox="0 0 14 14"
  fill="none"
  xmlns="http://www.w3.org/2000/svg"
>
  <path
    d="M6.83008 6.73242C7 6.73242 7.13477 6.67969 7.24023 6.56836L9.64258 4.14844C9.77148 4.01953 9.83008 3.87891 9.83008 3.71484C9.83008 3.55664 9.76562 3.4043 9.64258 3.28711L7.24023 0.84375C7.13477 0.726562 7 0.667969 6.83008 0.667969C6.51367 0.667969 6.26172 0.931641 6.26172 1.25391C6.26172 1.41211 6.32031 1.54102 6.41992 1.65234L7.82031 3.02344C7.54492 2.98242 7.26367 2.95898 6.98242 2.95898C4.08203 2.95898 1.76172 5.2793 1.76172 8.18555C1.76172 11.0918 4.09961 13.4297 7 13.4297C9.90625 13.4297 12.2383 11.0918 12.2383 8.18555C12.2383 7.83398 11.9922 7.58203 11.6406 7.58203C11.3008 7.58203 11.0723 7.83398 11.0723 8.18555C11.0723 10.4473 9.26172 12.2637 7 12.2637C4.74414 12.2637 2.92773 10.4473 2.92773 8.18555C2.92773 5.90625 4.72656 4.10156 6.98242 4.10156C7.36328 4.10156 7.71484 4.13086 8.02539 4.18359L6.42578 5.76562C6.32031 5.87109 6.26172 6 6.26172 6.1582C6.26172 6.48047 6.51367 6.73242 6.83008 6.73242Z"
    fill="#dee7f1"
  />
</svg>