<svg width="96" height="24" viewBox="0 0 96 24" fill="none" xmlns="http://www.w3.org/2000/svg">
<g clip-path="url(#clip0_3459_8)">
<path d="M12.0083 14.3736C12.4309 14.3736 12.779 14.0253 12.779 13.6107V5.26757L12.721 4.04016L13.2265 4.64557L14.3867 5.88127C14.5193 6.03055 14.7099 6.10519 14.9006 6.10519C15.2818 6.10519 15.5967 5.83151 15.5967 5.44173C15.5967 5.2344 15.5138 5.08512 15.3729 4.94413L12.5967 2.26539C12.3978 2.06635 12.2072 2 12.0083 2C11.8011 2 11.6188 2.06635 11.4199 2.26539L8.63536 4.94413C8.49448 5.08512 8.4116 5.2344 8.4116 5.44173C8.4116 5.83151 8.71823 6.10519 9.09945 6.10519C9.29006 6.10519 9.48895 6.03055 9.62155 5.88127L10.7818 4.64557L11.2956 4.03186L11.2293 5.26757V13.6107C11.2293 14.0253 11.5773 14.3736 12.0083 14.3736ZM7.22652 21H16.7735C18.5718 21 19.5 20.0711 19.5 18.2964V10.144C19.5 8.36927 18.5718 7.44042 16.7735 7.44042H14.5359V9.09079H16.6657C17.4199 9.09079 17.8508 9.48887 17.8508 10.285V18.1471C17.8508 18.9433 17.4199 19.3413 16.6657 19.3413H7.33425C6.57182 19.3413 6.14917 18.9433 6.14917 18.1471V10.285C6.14917 9.48887 6.57182 9.09079 7.33425 9.09079H9.48895V7.44042H7.22652C5.43646 7.44042 4.5 8.36098 4.5 10.144V18.2964C4.5 20.0711 5.43646 21 7.22652 21Z" fill="#B7B7B7"/>
<path d="M47 19C47.5269 19 47.9534 18.5723 47.9534 18.087V12.9377H53.055C53.5651 12.9377 54 12.5182 54 12C54 11.49 53.5651 11.0623 53.055 11.0623H47.9534V5.91304C47.9534 5.41951 47.5269 5 47 5C46.4815 5 46.0466 5.41951 46.0466 5.91304V11.0623H40.945C40.4516 11.0623 40 11.49 40 12C40 12.5182 40.4516 12.9377 40.945 12.9377H46.0466V18.087C46.0466 18.5723 46.4815 19 47 19Z" fill="#B7B7B7"/>
<path d="M77.7278 17.0347H79.1373V18.2867C79.1373 20.061 80.0742 20.9896 81.865 20.9896H90.2722C92.0631 20.9896 93 20.061 93 18.2867V9.82147C93 8.04717 92.0631 7.11857 90.2722 7.11857H88.8627V5.8749C88.8627 4.1006 87.9258 3.172 86.135 3.172H77.7278C75.9286 3.172 75 4.1006 75 5.8749V14.3318C75 16.1144 75.9286 17.0347 77.7278 17.0347ZM77.8356 15.3848C77.0728 15.3848 76.6499 14.9868 76.6499 14.1826V6.02414C76.6499 5.2199 77.0728 4.83022 77.8356 4.83022H86.0272C86.7817 4.83022 87.2128 5.2199 87.2128 6.02414V7.11857H81.865C80.0742 7.11857 79.1373 8.04717 79.1373 9.82147V15.3848H77.8356ZM81.9728 19.3314C81.21 19.3314 80.7955 18.9334 80.7955 18.1375V9.97071C80.7955 9.17476 81.21 8.77679 81.9728 8.77679H90.1644C90.9272 8.77679 91.3501 9.17476 91.3501 9.97071V18.1375C91.3501 18.9334 90.9272 19.3314 90.1644 19.3314H81.9728Z" fill="#B7B7B7"/>
</g>
<defs>
<clipPath id="clip0_3459_8">
<rect width="96" height="24" fill="white"/>
</clipPath>
</defs>
</svg>