<svg
  class="icon-shield"
  width="24"
  height="24"
  viewBox="0 0 24 24"
  fill="none"
  xmlns="http://www.w3.org/2000/svg"
>
  <path
    d="M12 21C12.1489 21 12.3723 20.9499 12.5792 20.8329C17.3452 18.2182 19 17.0069 19 13.9661V7.65897C19 6.65651 18.6111 6.2973 17.7837 5.93808C16.8652 5.54545 13.779 4.45946 12.8771 4.15037C12.604 4.05848 12.2813 4 12 4C11.7187 4 11.396 4.07518 11.1229 4.15037C10.221 4.40934 7.13475 5.55381 6.21631 5.93808C5.38889 6.28894 5 6.65651 5 7.65897V13.9661C5 17.0069 6.66312 18.2015 11.4125 20.8329C11.6277 20.9499 11.8511 21 12 21ZM12.4468 5.68747C13.5307 6.12187 15.8889 6.9656 17.13 7.40835C17.3617 7.50025 17.4196 7.62555 17.4196 7.92629V13.657C17.4196 16.1047 16.2033 16.7646 12.4716 19.0369C12.24 19.1789 12.1241 19.229 12.0083 19.229V5.59558C12.1241 5.59558 12.2482 5.62064 12.4468 5.68747Z"
    fill="#B7B7B7"
  />
</svg>
