<svg class="vector" width="183" height="107" viewBox="0 0 183 107" fill="none" xmlns="http://www.w3.org/2000/svg">
    <path
        d="M0 43C0 40.7909 1.79086 39 4 39H64C66.2091 39 68 40.7909 68 43V103C68 105.209 66.2091 107 64 107H4C1.79086 107 0 105.209 0 103V43Z"
        fill="url(#paint0_linear_865_15)" />
    <path
        d="M80 56C80 53.7909 81.7909 52 84 52H122C124.209 52 126 53.7909 126 56V94C126 96.2091 124.209 98 122 98H84C81.7909 98 80 96.2091 80 94V56Z"
        fill="url(#paint1_linear_865_15)" />
    <path
        d="M109 14C109 11.7909 110.791 10 113 10H137C139.209 10 141 11.7909 141 14V38C141 40.2091 139.209 42 137 42H113C110.791 42 109 40.2091 109 38V14Z"
        fill="url(#paint2_linear_865_15)" />
    <path
        d="M150 43C150 40.7909 151.791 39 154 39H172C174.209 39 176 40.7909 176 43V61C176 63.2091 174.209 65 172 65H154C151.791 65 150 63.2091 150 61V43Z"
        fill="url(#paint3_linear_865_15)" />
    <path
        d="M163 4C163 1.79086 164.791 0 167 0H179C181.209 0 183 1.79086 183 4V16C183 18.2091 181.209 20 179 20H167C164.791 20 163 18.2091 163 16V4Z"
        fill="url(#paint4_linear_865_15)" />
    <defs>
        <linearGradient id="paint0_linear_865_15" x1="0" y1="53.5" x2="183" y2="53.5" gradientUnits="userSpaceOnUse">
            <stop stop-color="#0F72E3" />
            <stop offset="1" stop-color="#06080B" />
        </linearGradient>
        <linearGradient id="paint1_linear_865_15" x1="0" y1="53.5" x2="183" y2="53.5" gradientUnits="userSpaceOnUse">
            <stop stop-color="#0F72E3" />
            <stop offset="1" stop-color="#06080B" />
        </linearGradient>
        <linearGradient id="paint2_linear_865_15" x1="0" y1="53.5" x2="183" y2="53.5" gradientUnits="userSpaceOnUse">
            <stop stop-color="#0F72E3" />
            <stop offset="1" stop-color="#06080B" />
        </linearGradient>
        <linearGradient id="paint3_linear_865_15" x1="0" y1="53.5" x2="183" y2="53.5" gradientUnits="userSpaceOnUse">
            <stop stop-color="#0F72E3" />
            <stop offset="1" stop-color="#06080B" />
        </linearGradient>
        <linearGradient id="paint4_linear_865_15" x1="0" y1="53.5" x2="183" y2="53.5" gradientUnits="userSpaceOnUse">
            <stop stop-color="#0F72E3" />
            <stop offset="1" stop-color="#06080B" />
        </linearGradient>
    </defs>
</svg>