<svg width="371" height="318" viewBox="0 0 371 318" fill="none" xmlns="http://www.w3.org/2000/svg">
<rect x="145" y="59" width="80" height="71" fill="#2A3952" stroke="#1F2B3E" stroke-width="2"/>
<path d="M64 129.685L145 129.685V60L64 129.685Z" fill="#2A3952" stroke="#1F2B3E" stroke-width="2"/>
<path d="M64 129.685L145 129.685L185 281L64 129.685Z" fill="#2A3952" stroke="#1F2B3E" stroke-width="2"/>
<path d="M306 129.685L225 129.685L185 281L306 129.685Z" fill="#2A3952" stroke="#1F2B3E" stroke-width="2"/>
<path d="M306 129.685L225 129.685V60L306 129.685Z" fill="#2A3952" stroke="#1F2B3E" stroke-width="2"/>
<path d="M145 129.685L225 129.685L185 60L145 129.685Z" fill="#2A3952" stroke="#1F2B3E" stroke-width="2"/>
<path d="M145 129.685L225 129.685L185 281L145 129.685Z" fill="#2A3952" stroke="#1F2B3E" stroke-width="2"/>
<path d="M27 59H343" stroke="#1F2B3E" stroke-width="2" stroke-linecap="round"/>
<path d="M27 130H343" stroke="#1F2B3E" stroke-width="2" stroke-linecap="round"/>
<path d="M27 281H343" stroke="#1F2B3E" stroke-width="2" stroke-linecap="round"/>
<path d="M64 317L64 1.00001" stroke="#1F2B3E" stroke-width="2" stroke-linecap="round"/>
<path d="M306 317L306 1.00001" stroke="#1F2B3E" stroke-width="2" stroke-linecap="round"/>
<path d="M225 317L225 1.00001" stroke="#1F2B3E" stroke-width="2" stroke-linecap="round"/>
<path d="M145 317L145 1.00001" stroke="#1F2B3E" stroke-width="2" stroke-linecap="round"/>
<path d="M1.33594 184.843L212.655 1.14671" stroke="#1F2B3E" stroke-width="2" stroke-linecap="round"/>
<path d="M369.318 184.843L158 1.14671" stroke="#1F2B3E" stroke-width="2" stroke-linecap="round"/>
<path d="M185 317L185 1.00001" stroke="#1F2B3E" stroke-width="2" stroke-linecap="round"/>
</svg>
