<svg version="1.1" xmlns="http://www.w3.org/2000/svg" xmlns:xlink="http://www.w3.org/1999/xlink">
    <defs>
        <!-- PRODUCT -->

        <symbol id="cursor" viewBox="0 0 24 26" fill="none">
            <path
                d="M7.35822 7.36856L6.60823 7.37237L6.60823 7.37237L7.35822 7.36856ZM7.33998 3.7762L7.78693 3.17393C7.5588 3.00463 7.25461 2.97876 7.00117 3.10709C6.74773 3.23543 6.58855 3.49593 6.58999 3.78001L7.33998 3.7762ZM10.2248 5.91702L9.77786 6.5193L9.77786 6.5193L10.2248 5.91702ZM18.8793 12.3395L18.8831 13.0895C19.206 13.0878 19.4915 12.8798 19.592 12.573C19.6926 12.2663 19.5855 11.9296 19.3263 11.7372L18.8793 12.3395ZM13.4908 12.3668L13.487 11.6169C13.227 11.6182 12.9863 11.754 12.8508 11.9758C12.7153 12.1976 12.7042 12.4738 12.8217 12.7057L13.4908 12.3668ZM16.7568 18.8167L17.0956 19.4858C17.4651 19.2987 17.613 18.8474 17.4259 18.4779L16.7568 18.8167ZM13.8902 20.2682L13.2211 20.607C13.3109 20.7845 13.4676 20.919 13.6566 20.9809C13.8456 21.0429 14.0515 21.0272 14.229 20.9373L13.8902 20.2682ZM10.6242 13.8184L11.2933 13.4796C11.1759 13.2477 10.9468 13.0931 10.6878 13.0711C10.4288 13.0491 10.1768 13.1627 10.0219 13.3715L10.6242 13.8184ZM7.41298 18.1457L6.66299 18.1495C6.66463 18.4723 6.87265 18.7578 7.17942 18.8584C7.4862 18.9589 7.82288 18.8518 8.01525 18.5926L7.41298 18.1457ZM8.10821 7.36476L8.08997 3.77239L6.58999 3.78001L6.60823 7.37237L8.10821 7.36476ZM6.89303 4.37848L9.77786 6.5193L10.6718 5.31474L7.78693 3.17393L6.89303 4.37848ZM9.77786 6.5193L18.4324 12.9418L19.3263 11.7372L10.6718 5.31474L9.77786 6.5193ZM18.8755 11.5895L13.487 11.6169L13.4946 13.1168L18.8831 13.0895L18.8755 11.5895ZM12.8217 12.7057L16.0876 19.1555L17.4259 18.4779L14.1599 12.028L12.8217 12.7057ZM16.4179 18.1476L13.5514 19.5991L14.229 20.9373L17.0956 19.4858L16.4179 18.1476ZM14.5593 19.9294L11.2933 13.4796L9.95509 14.1572L13.2211 20.607L14.5593 19.9294ZM10.0219 13.3715L6.8107 17.6987L8.01525 18.5926L11.2265 14.2653L10.0219 13.3715ZM8.16297 18.1418L8.10821 7.36475L6.60823 7.37237L6.66299 18.1495L8.16297 18.1418Z"
                fill="currentColor"></path>
        </symbol>

        <symbol id="cms" viewBox="0 0 24 24" fill="none">
            <path
                d="M12 4.875C10.3279 4.875 8.80801 5.2136 7.70146 5.76688C6.60238 6.31641 5.875 7.09872 5.875 8V16C5.875 16.9013 6.60238 17.6836 7.70146 18.2331C8.80801 18.7864 10.3279 19.125 12 19.125C13.6721 19.125 15.192 18.7864 16.2985 18.2331C17.3976 17.6836 18.125 16.9013 18.125 16V8C18.125 7.09872 17.3976 6.31641 16.2985 5.76688C15.192 5.2136 13.6721 4.875 12 4.875ZM12 6.125C13.5201 6.125 14.8406 6.43546 15.7395 6.88491C16.704 7.36713 16.875 7.82604 16.875 8C16.875 8.17396 16.704 8.63287 15.7395 9.11509C14.8406 9.56454 13.5201 9.875 12 9.875C10.4799 9.875 9.15938 9.56454 8.26047 9.11509C7.29604 8.63287 7.125 8.17396 7.125 8C7.125 7.82604 7.29604 7.36713 8.26047 6.88491C9.15938 6.43546 10.4799 6.125 12 6.125ZM16.875 9.90052V12C16.875 12.2307 16.7586 12.4631 16.5212 12.6877C16.2835 12.9125 15.9328 13.1207 15.4891 13.2982C14.6024 13.6528 13.3689 13.875 12 13.875C10.6311 13.875 9.39759 13.6528 8.51089 13.2982C8.06719 13.1207 7.71652 12.9125 7.47881 12.6877C7.24137 12.4631 7.125 12.2307 7.125 12V9.90052C8.2465 10.6493 10.0187 11.125 12 11.125C13.9813 11.125 15.7535 10.6493 16.875 9.90052ZM7.125 16V13.9005C8.2465 14.6493 10.0187 15.125 12 15.125C13.9813 15.125 15.7535 14.6493 16.875 13.9005V16C16.875 16.174 16.704 16.6329 15.7395 17.1151C14.8406 17.5645 13.5201 17.875 12 17.875C10.4799 17.875 9.15938 17.5645 8.26047 17.1151C7.29604 16.6329 7.125 16.174 7.125 16Z"
                fill="currentColor" stroke="currentColor" stroke-width="0.25"></path>
        </symbol>

        <symbol id="ecommerce" viewBox="0 0 24 24" fill="none">
            <path d="M15 4L17 11" stroke="currentColor" stroke-width="1.5"></path>
            <path d="M9 4L7 11" stroke="currentColor" stroke-width="1.5"></path>
            <path
                d="M19.6053 11.8977L17.2525 19.25H6.74746L4.39474 11.8977C4.2131 11.3301 4.63657 10.75 5.23252 10.75H18.7675C19.3634 10.75 19.7869 11.3301 19.6053 11.8977Z"
                stroke="currentColor" stroke-width="1.5"></path>
        </symbol>

        <symbol id="education" viewBox="0 0 24 24" fill="none">
            <path d="M12 7V19.5" stroke="currentColor" stroke-width="1.5"></path>
            <path
                d="M19.3136 5H16.1065C14.5089 5 12.998 5.7262 12 6.97368C11.002 5.7262 9.49107 5 7.8935 5H4.68643C4.58347 5 4.5 5.08347 4.5 5.18643V17.8399C4.5 17.9428 4.58347 18.0263 4.68643 18.0263H7.90962C9.49699 18.0263 10.9983 18.7479 11.9899 19.9874C11.9951 19.9939 12.0049 19.9939 12.0101 19.9874C13.0017 18.7479 14.503 18.0263 16.0904 18.0263H19.3136C19.4165 18.0263 19.5 17.9428 19.5 17.8399V5.18643C19.5 5.08347 19.4165 5 19.3136 5Z"
                stroke="currentColor" stroke-width="1.5"></path>
        </symbol>

        <symbol id="blog" viewBox="0 0 24 24" fill="none">
            <rect x="5.75" y="5" width="12.5" height="6" rx="1" stroke="currentColor" stroke-width="1.5"></rect>
            <rect x="5.375" y="14.375" width="13.25" height="0.75" stroke="currentColor" stroke-width="0.75"></rect>
            <rect x="5.375" y="17.875" width="10.25" height="0.75" stroke="currentColor" stroke-width="0.75"></rect>
        </symbol>

        <symbol id="interactions" viewBox="0 0 24 24" fill="none">
            <path
                d="M12.75 15.3333C12.75 14.9191 12.4142 14.5833 12 14.5833H5.76619C5.57187 14.5833 5.45184 14.3713 5.55182 14.2047L11.25 4.70774V9.77778C11.25 10.192 11.5858 10.5278 12 10.5278H18.1503C18.349 10.5278 18.4683 10.7484 18.3595 10.9147L12.75 19.4847V15.3333Z"
                stroke="currentColor" stroke-width="1.5" stroke-linejoin="round"></path>
        </symbol>

        <symbol id="localization" viewBox="0 0 24 24" fill="none">
            <circle cx="12" cy="12" r="8" stroke="currentColor" stroke-width="1.5"></circle>
            <ellipse cx="12" cy="12" rx="3" ry="8" stroke="currentColor" stroke-width="1.5"></ellipse>
            <ellipse cx="12" cy="12" rx="3" ry="8" transform="rotate(90 12 12)" stroke="currentColor"
                stroke-width="1.5"></ellipse>
        </symbol>

        <symbol id="edit" viewBox="0 0 24 24" fill="none" xmlns="http://www.w3.org/2000/svg">
            <path d="M15 5.5L5.75 14.7501V18.2501H9.25L18.5 9L15 5.5Z" stroke="currentColor" stroke-width="1.5"></path>
            <path d="M20 18.25H13" stroke="currentColor" stroke-width="1.5"></path>
        </symbol>

        <symbol id="seo" viewBox="0 0 24 24" fill="none">
            <path
                d="M17 11C17 14.3137 14.3137 17 11 17C7.68629 17 5 14.3137 5 11C5 7.68629 7.68629 5 11 5C14.3137 5 17 7.68629 17 11Z"
                stroke="currentColor" stroke-width="1.5"></path>
            <path d="M15 15L20 20" stroke="currentColor" stroke-width="1.5"></path>
        </symbol>


        <!-- SOLUTIONS -->

        <symbol id="freelancers" viewBox="0 0 24 24" fill="none">
            <circle cx="11" cy="8" r="4" stroke="currentColor" stroke-width="1.5"></circle>
            <path d="M4 17.5L4 16C4.00001 13.7909 5.79087 12 8 12H11" stroke="currentColor" stroke-width="1.5"></path>
            <path d="M5 20H18.0001L21.3502 15.8123C21.6121 15.485 21.379 15 20.9597 15H12.0001L8.49994 20H5Z"
                stroke="currentColor" stroke-width="1.5" stroke-linecap="round"></path>
        </symbol>

        <symbol id="agencies" viewBox="0 0 24 24" fill="none">
            <circle cx="12" cy="8" r="2.25" stroke="currentColor" stroke-width="1.5"></circle>
            <path d="M15.5 10.25C16.7426 10.25 17.75 9.24264 17.75 8C17.75 6.75736 16.7426 5.75 15.5 5.75"
                stroke="currentColor" stroke-width="1.5"></path>
            <path d="M8.5 10.25C7.25736 10.25 6.25 9.24264 6.25 8C6.25 6.75736 7.25736 5.75 8.5 5.75"
                stroke="currentColor" stroke-width="1.5"></path>
            <path
                d="M7.75 19V15.25C7.75 14.1454 8.64543 13.25 9.75 13.25H14.25C15.3546 13.25 16.25 14.1454 16.25 15.25V19"
                stroke="currentColor" stroke-width="1.5"></path>
            <path d="M17.5 13.25H17.75C18.8546 13.25 19.75 14.1454 19.75 15.25V18" stroke="currentColor"
                stroke-width="1.5"></path>
            <path d="M6.5 13.25H6.25C5.14543 13.25 4.25 14.1454 4.25 15.25V18" stroke="currentColor" stroke-width="1.5">
            </path>
        </symbol>

        <symbol id="startups" viewBox="0 0 24 24" fill="none">
            <path d="M12 15.9971V12" stroke="currentColor" stroke-width="1.5"></path>
            <path d="M12 12C12 7.99594 15.2459 4.75 19.25 4.75C19.25 8.75406 16.0041 12 12 12Z" stroke="currentColor"
                stroke-width="1.5"></path>
            <path d="M12 12C12 9.1005 9.6495 6.75 6.75 6.75C6.75 9.64949 9.10051 12 12 12Z" stroke="currentColor"
                stroke-width="1.5"></path>
            <path d="M6.57544 18.5754C7.85907 17.0036 9.81235 16 12 16C14.1877 16 16.141 17.0036 17.4246 18.5754"
                stroke="currentColor" stroke-width="1.5"></path>
        </symbol>

        <symbol id="enterprise" viewBox="0 0 24 24" fill="none">
            <path
                d="M10 5.875C9.37868 5.875 8.875 6.37868 8.875 7V8.875H7C6.37868 8.875 5.875 9.37868 5.875 10V17C5.875 17.6213 6.37868 18.125 7 18.125H17C17.6213 18.125 18.125 17.6213 18.125 17V10C18.125 9.37868 17.6213 8.875 17 8.875H15.125V7C15.125 6.37868 14.6213 5.875 14 5.875H10ZM10.125 7.125H13.875V8.875H10.125V7.125ZM7.125 10.125H16.875V16.875H7.125V10.125Z"
                fill="currentColor" stroke="currentColor" stroke-width="0.25"></path>
        </symbol>

        <symbol id="global_alliances" viewBox="0 0 24 24" fill="none">
            <path fill-rule="evenodd" clip-rule="evenodd"
                d="M10.0978 8.33231C10.2289 7.68975 10.3926 7.10879 10.5809 6.60649C10.8339 5.93183 11.1171 5.43796 11.3935 5.12623C11.6706 4.81363 11.8773 4.75 12 4.75C12.1227 4.75 12.3294 4.81363 12.6065 5.12623C12.8829 5.43796 13.1661 5.93183 13.4191 6.60649C13.6074 7.10879 13.7711 7.68975 13.9022 8.33231C13.2887 8.27828 12.6518 8.25 12 8.25C11.3482 8.25 10.7113 8.27828 10.0978 8.33231ZM9.17643 6.0798C9.29803 5.75555 9.43253 5.44808 9.5803 5.16361C7.52274 5.89189 5.89189 7.52274 5.16361 9.5803C5.44808 9.43253 5.75555 9.29803 6.0798 9.17643C6.7946 8.90838 7.62433 8.6907 8.53385 8.53385C8.6907 7.62434 8.90838 6.7946 9.17643 6.0798ZM14.8236 6.0798C14.702 5.75555 14.5675 5.44808 14.4197 5.16361C16.4773 5.89189 18.1081 7.52274 18.8364 9.5803C18.5519 9.43253 18.2444 9.29803 17.9202 9.17643C17.2054 8.90838 16.3757 8.6907 15.4661 8.53385C15.3093 7.62434 15.0916 6.7946 14.8236 6.0798ZM5.16361 14.4197C5.89189 16.4773 7.52274 18.1081 9.5803 18.8364C9.43253 18.5519 9.29803 18.2444 9.17643 17.9202C8.90838 17.2054 8.6907 16.3757 8.53385 15.4661C7.62434 15.3093 6.7946 15.0916 6.0798 14.8236C5.75555 14.702 5.44808 14.5675 5.16361 14.4197ZM5.12623 12.6065C4.81363 12.3294 4.75 12.1227 4.75 12C4.75 11.8773 4.81363 11.6706 5.12623 11.3935C5.43796 11.1171 5.93183 10.8339 6.60649 10.5809C7.10879 10.3926 7.68975 10.2289 8.33231 10.0978C8.27828 10.7113 8.25 11.3482 8.25 12C8.25 12.6518 8.27828 13.2887 8.33231 13.9022C7.68975 13.7711 7.10879 13.6074 6.60649 13.4191C5.93183 13.1661 5.43796 12.8829 5.12623 12.6065ZM12 15.75V14.25C11.2543 14.25 10.5372 14.2104 9.86246 14.1375C9.7896 13.4628 9.75 12.7457 9.75 12C9.75 11.2543 9.7896 10.5372 9.86246 9.86246C10.5372 9.7896 11.2543 9.75 12 9.75C12.7457 9.75 13.4628 9.7896 14.1375 9.86246C14.2104 10.5372 14.25 11.2543 14.25 12H15.75C15.75 11.3482 15.7217 10.7113 15.6677 10.0978C16.3102 10.2289 16.8912 10.3926 17.3935 10.5809C18.0682 10.8339 18.562 11.1171 18.8738 11.3935C19.1864 11.6706 19.25 11.8773 19.25 12H20.75C20.75 7.16751 16.8325 3.25 12 3.25C7.16751 3.25 3.25 7.16751 3.25 12C3.25 16.8325 7.16751 20.75 12 20.75V19.25C11.8773 19.25 11.6706 19.1864 11.3935 18.8738C11.1171 18.562 10.8339 18.0682 10.5809 17.3935C10.3926 16.8912 10.2289 16.3102 10.0978 15.6677C10.7113 15.7217 11.3482 15.75 12 15.75Z"
                fill="currentColor"></path>
            <path
                d="M17.5 20L14.4981 16.9499C13.8454 16.2867 13.8325 15.2155 14.4692 14.5363C15.1431 13.8174 16.2732 13.8219 16.9415 14.5462L17.5 15.1515L18.0585 14.5462C18.7268 13.8219 19.8569 13.8174 20.5308 14.5363C21.1675 15.2155 21.1546 16.2867 20.5019 16.9499L17.5 20Z"
                fill="currentColor"></path>
        </symbol>

        <symbol id="domain" viewBox="0 0 24 24" fill="none">
            <path
                d="M3.64431 14.2857C3.43749 14.2857 3.2784 14.2287 3.16704 14.1146C3.05568 14.0005 3 13.8372 3 13.6246C3 13.4327 3.05833 13.2772 3.175 13.1579C3.29696 13.0334 3.4534 12.9712 3.64431 12.9712C3.84582 12.9712 4.00225 13.0283 4.11362 13.1423C4.22498 13.2564 4.28066 13.4172 4.28066 13.6246C4.28066 13.8216 4.22233 13.9824 4.10566 14.1068C3.989 14.2261 3.83521 14.2857 3.64431 14.2857Z"
                fill="currentColor" />
            <path
                d="M7.01753 14.2779C6.61451 14.2779 6.25391 14.1846 5.93573 13.9979C5.61756 13.8113 5.36567 13.5572 5.18006 13.2357C4.99977 12.9142 4.90962 12.5486 4.90962 12.139C4.90962 11.7345 4.99977 11.3715 5.18006 11.05C5.36567 10.7234 5.61756 10.4667 5.93573 10.28C6.25391 10.0933 6.61451 10 7.01753 10C7.39404 10 7.73873 10.0674 8.0516 10.2022C8.36448 10.337 8.60841 10.5237 8.78341 10.7623L8.16297 11.4934C8.08872 11.3949 7.99592 11.3067 7.88456 11.2289C7.7732 11.146 7.65123 11.0812 7.51866 11.0345C7.39139 10.9878 7.25882 10.9645 7.12094 10.9645C6.90352 10.9645 6.70996 11.0163 6.54027 11.12C6.37588 11.2186 6.24595 11.356 6.1505 11.5323C6.05505 11.7086 6.00732 11.9108 6.00732 12.139C6.00732 12.3619 6.05505 12.5616 6.1505 12.7379C6.25126 12.909 6.38648 13.049 6.55618 13.1579C6.72587 13.2616 6.91678 13.3135 7.12889 13.3135C7.26677 13.3135 7.39669 13.2953 7.51866 13.259C7.64063 13.2175 7.75464 13.1579 7.8607 13.0801C7.97206 13.0023 8.07282 12.909 8.16297 12.8001L8.77545 13.5312C8.59515 13.7542 8.34592 13.9357 8.02774 14.0757C7.70956 14.2105 7.37283 14.2779 7.01753 14.2779Z"
                fill="currentColor" />
            <path
                d="M11.456 14.2779C11.0265 14.2779 10.642 14.1872 10.3026 14.0057C9.96855 13.819 9.70341 13.5649 9.5072 13.2435C9.31629 12.922 9.22084 12.5538 9.22084 12.139C9.22084 11.7241 9.31629 11.3586 9.5072 11.0423C9.70341 10.7208 9.96855 10.4667 10.3026 10.28C10.642 10.0933 11.0265 10 11.456 10C11.8803 10 12.2594 10.0933 12.5935 10.28C12.9329 10.4667 13.198 10.7208 13.3889 11.0423C13.5799 11.3586 13.6753 11.7241 13.6753 12.139C13.6753 12.5538 13.5799 12.922 13.3889 13.2435C13.198 13.5649 12.9329 13.819 12.5935 14.0057C12.2594 14.1872 11.8803 14.2779 11.456 14.2779ZM11.456 13.3135C11.6628 13.3135 11.8484 13.2642 12.0128 13.1657C12.1772 13.062 12.3045 12.922 12.3946 12.7457C12.4901 12.5642 12.5378 12.3619 12.5378 12.139C12.5378 11.9108 12.4901 11.7086 12.3946 11.5323C12.3045 11.3508 12.1772 11.2108 12.0128 11.1123C11.8484 11.0086 11.6628 10.9567 11.456 10.9567C11.2439 10.9567 11.0557 11.0086 10.8913 11.1123C10.7269 11.216 10.5969 11.356 10.5015 11.5323C10.406 11.7086 10.361 11.9108 10.3663 12.139C10.361 12.3619 10.406 12.5642 10.5015 12.7457C10.5969 12.922 10.7269 13.062 10.8913 13.1657C11.0557 13.2642 11.2439 13.3135 11.456 13.3135Z"
                fill="currentColor" />
            <path
                d="M14.5172 14.2002V10.0856H15.6069L15.6308 10.8711L15.4637 10.9023C15.5221 10.7674 15.599 10.6456 15.6944 10.5367C15.7899 10.4278 15.9012 10.3345 16.0285 10.2567C16.1611 10.1789 16.299 10.1193 16.4421 10.0778C16.5853 10.0311 16.7285 10.0078 16.8717 10.0078C17.0891 10.0078 17.2853 10.0415 17.4603 10.1089C17.6353 10.1763 17.7838 10.2826 17.9057 10.4278C18.0277 10.5678 18.1232 10.7545 18.1921 10.9878L18.0171 10.9723L18.0728 10.8478C18.1417 10.7234 18.2292 10.6119 18.3353 10.5134C18.4413 10.4096 18.5607 10.3215 18.6932 10.2489C18.8258 10.1711 18.9637 10.1115 19.1069 10.07C19.25 10.0285 19.3906 10.0078 19.5284 10.0078C19.8572 10.0078 20.1303 10.0726 20.3477 10.2022C20.5652 10.3267 20.7269 10.5159 20.833 10.77C20.9443 11.0241 21 11.3352 21 11.7034V14.2002H19.8705V11.7812C19.8705 11.5945 19.844 11.4415 19.7909 11.3223C19.7379 11.203 19.661 11.1149 19.5603 11.0578C19.4595 10.9956 19.3296 10.9645 19.1705 10.9645C19.0485 10.9645 18.9345 10.9852 18.8284 11.0267C18.7277 11.063 18.6375 11.1174 18.558 11.19C18.4838 11.2575 18.4254 11.3378 18.383 11.4312C18.3406 11.5245 18.3194 11.6282 18.3194 11.7423V14.2002H17.1898V11.7734C17.1898 11.6023 17.1607 11.4571 17.1023 11.3378C17.0493 11.2134 16.9724 11.12 16.8717 11.0578C16.7709 10.9956 16.6463 10.9645 16.4978 10.9645C16.3758 10.9645 16.2618 10.9852 16.1558 11.0267C16.055 11.063 15.9675 11.1174 15.8933 11.19C15.819 11.2575 15.7581 11.3378 15.7103 11.4312C15.6679 11.5245 15.6467 11.6256 15.6467 11.7345V14.2002H14.5172Z"
                fill="currentColor" />
        </symbol>

        <symbol id="hosting" viewBox="0 0 24 24" fill="none">
            <path
                d="M4.73817 17.1563C4.68201 17.0974 4.62812 17.0364 4.57665 16.9732C4.20125 16.5127 3.95448 15.9432 3.89113 15.3195C3.88047 15.2145 3.875 15.1079 3.875 15L4.73817 17.1563ZM4.73817 17.1563L4.20772 17.6868L4.73817 17.1563ZM16.8577 11.8945L16.8556 11.9935L16.9515 12.0181L17.7187 12.2153C18.9593 12.5341 19.875 13.6615 19.875 15C19.875 16.5878 18.5878 17.875 17 17.875H7C5.41542 17.875 4.13026 16.5931 4.12502 15.0097C4.12501 15.0065 4.125 15.0032 4.125 15C4.125 13.4122 5.41218 12.125 7 12.125C7.81131 12.125 8.54394 12.4609 9.06682 13.0015L9.15518 13.0929L9.24506 13.003L9.95224 12.2958L10.0395 12.2085L9.95334 12.1202C9.23169 11.3802 8.23388 10.9103 7.12652 10.8769C7.19184 8.2414 9.34876 6.125 12 6.125C14.6924 6.125 16.875 8.30761 16.875 11C16.875 11.0343 16.8746 11.0685 16.8739 11.1026L16.8577 11.8945ZM4.12188 17.955L4.20854 18.0395L4.20984 18.0382C4.94425 18.713 5.92402 19.125 7 19.125H17C19.2782 19.125 21.125 17.2782 21.125 15C21.125 13.1117 19.8563 11.52 18.1249 11.0303C18.125 11.0202 18.125 11.0101 18.125 11C18.125 7.61726 15.3827 4.875 12 4.875C8.61726 4.875 5.875 7.61726 5.875 11C5.875 11.0101 5.87502 11.0202 5.87507 11.0303C4.91316 11.3023 4.09408 11.9145 3.55602 12.7288C3.12559 13.3801 2.875 14.1608 2.875 15C2.875 16.1586 3.35269 17.2057 4.12188 17.955Z"
                fill="currentColor" stroke="currentColor" stroke-width="0.25"></path>
        </symbol>
    </defs>
</svg>