<svg version="1.1" xmlns="http://www.w3.org/2000/svg" xmlns:xlink="http://www.w3.org/1999/xlink">
    <defs>
        <symbol id="cursor" viewBox="0 0 24 26" fill="none">
            <path
                d="M7.35822 7.36856L6.60823 7.37237L6.60823 7.37237L7.35822 7.36856ZM7.33998 3.7762L7.78693 3.17393C7.5588 3.00463 7.25461 2.97876 7.00117 3.10709C6.74773 3.23543 6.58855 3.49593 6.58999 3.78001L7.33998 3.7762ZM10.2248 5.91702L9.77786 6.5193L9.77786 6.5193L10.2248 5.91702ZM18.8793 12.3395L18.8831 13.0895C19.206 13.0878 19.4915 12.8798 19.592 12.573C19.6926 12.2663 19.5855 11.9296 19.3263 11.7372L18.8793 12.3395ZM13.4908 12.3668L13.487 11.6169C13.227 11.6182 12.9863 11.754 12.8508 11.9758C12.7153 12.1976 12.7042 12.4738 12.8217 12.7057L13.4908 12.3668ZM16.7568 18.8167L17.0956 19.4858C17.4651 19.2987 17.613 18.8474 17.4259 18.4779L16.7568 18.8167ZM13.8902 20.2682L13.2211 20.607C13.3109 20.7845 13.4676 20.919 13.6566 20.9809C13.8456 21.0429 14.0515 21.0272 14.229 20.9373L13.8902 20.2682ZM10.6242 13.8184L11.2933 13.4796C11.1759 13.2477 10.9468 13.0931 10.6878 13.0711C10.4288 13.0491 10.1768 13.1627 10.0219 13.3715L10.6242 13.8184ZM7.41298 18.1457L6.66299 18.1495C6.66463 18.4723 6.87265 18.7578 7.17942 18.8584C7.4862 18.9589 7.82288 18.8518 8.01525 18.5926L7.41298 18.1457ZM8.10821 7.36476L8.08997 3.77239L6.58999 3.78001L6.60823 7.37237L8.10821 7.36476ZM6.89303 4.37848L9.77786 6.5193L10.6718 5.31474L7.78693 3.17393L6.89303 4.37848ZM9.77786 6.5193L18.4324 12.9418L19.3263 11.7372L10.6718 5.31474L9.77786 6.5193ZM18.8755 11.5895L13.487 11.6169L13.4946 13.1168L18.8831 13.0895L18.8755 11.5895ZM12.8217 12.7057L16.0876 19.1555L17.4259 18.4779L14.1599 12.028L12.8217 12.7057ZM16.4179 18.1476L13.5514 19.5991L14.229 20.9373L17.0956 19.4858L16.4179 18.1476ZM14.5593 19.9294L11.2933 13.4796L9.95509 14.1572L13.2211 20.607L14.5593 19.9294ZM10.0219 13.3715L6.8107 17.6987L8.01525 18.5926L11.2265 14.2653L10.0219 13.3715ZM8.16297 18.1418L8.10821 7.36475L6.60823 7.37237L6.66299 18.1495L8.16297 18.1418Z"
                fill="currentColor"></path>
        </symbol>

        <symbol id="cms" viewBox="0 0 24 24" fill="none">
            <path
                d="M12 4.875C10.3279 4.875 8.80801 5.2136 7.70146 5.76688C6.60238 6.31641 5.875 7.09872 5.875 8V16C5.875 16.9013 6.60238 17.6836 7.70146 18.2331C8.80801 18.7864 10.3279 19.125 12 19.125C13.6721 19.125 15.192 18.7864 16.2985 18.2331C17.3976 17.6836 18.125 16.9013 18.125 16V8C18.125 7.09872 17.3976 6.31641 16.2985 5.76688C15.192 5.2136 13.6721 4.875 12 4.875ZM12 6.125C13.5201 6.125 14.8406 6.43546 15.7395 6.88491C16.704 7.36713 16.875 7.82604 16.875 8C16.875 8.17396 16.704 8.63287 15.7395 9.11509C14.8406 9.56454 13.5201 9.875 12 9.875C10.4799 9.875 9.15938 9.56454 8.26047 9.11509C7.29604 8.63287 7.125 8.17396 7.125 8C7.125 7.82604 7.29604 7.36713 8.26047 6.88491C9.15938 6.43546 10.4799 6.125 12 6.125ZM16.875 9.90052V12C16.875 12.2307 16.7586 12.4631 16.5212 12.6877C16.2835 12.9125 15.9328 13.1207 15.4891 13.2982C14.6024 13.6528 13.3689 13.875 12 13.875C10.6311 13.875 9.39759 13.6528 8.51089 13.2982C8.06719 13.1207 7.71652 12.9125 7.47881 12.6877C7.24137 12.4631 7.125 12.2307 7.125 12V9.90052C8.2465 10.6493 10.0187 11.125 12 11.125C13.9813 11.125 15.7535 10.6493 16.875 9.90052ZM7.125 16V13.9005C8.2465 14.6493 10.0187 15.125 12 15.125C13.9813 15.125 15.7535 14.6493 16.875 13.9005V16C16.875 16.174 16.704 16.6329 15.7395 17.1151C14.8406 17.5645 13.5201 17.875 12 17.875C10.4799 17.875 9.15938 17.5645 8.26047 17.1151C7.29604 16.6329 7.125 16.174 7.125 16Z"
                fill="currentColor" stroke="currentColor" stroke-width="0.25"></path>
        </symbol>

        <symbol id="ecommerce" viewBox="0 0 24 24" fill="none">
            <path d="M15 4L17 11" stroke="currentColor" stroke-width="1.5"></path>
            <path d="M9 4L7 11" stroke="currentColor" stroke-width="1.5"></path>
            <path
                d="M19.6053 11.8977L17.2525 19.25H6.74746L4.39474 11.8977C4.2131 11.3301 4.63657 10.75 5.23252 10.75H18.7675C19.3634 10.75 19.7869 11.3301 19.6053 11.8977Z"
                stroke="currentColor" stroke-width="1.5"></path>
        </symbol>

        <symbol id="interactions" viewBox="0 0 24 24" fill="none">
            <path
                d="M12.75 15.3333C12.75 14.9191 12.4142 14.5833 12 14.5833H5.76619C5.57187 14.5833 5.45184 14.3713 5.55182 14.2047L11.25 4.70774V9.77778C11.25 10.192 11.5858 10.5278 12 10.5278H18.1503C18.349 10.5278 18.4683 10.7484 18.3595 10.9147L12.75 19.4847V15.3333Z"
                stroke="currentColor" stroke-width="1.5" stroke-linejoin="round"></path>
        </symbol>

        <symbol id="localization" viewBox="0 0 24 24" fill="none">
            <circle cx="12" cy="12" r="8" stroke="currentColor" stroke-width="1.5"></circle>
            <ellipse cx="12" cy="12" rx="3" ry="8" stroke="currentColor" stroke-width="1.5"></ellipse>
            <ellipse cx="12" cy="12" rx="3" ry="8" transform="rotate(90 12 12)" stroke="currentColor"
                stroke-width="1.5"></ellipse>
        </symbol>

        <symbol id="edit" viewBox="0 0 24 24" fill="none" xmlns="http://www.w3.org/2000/svg">
            <path d="M15 5.5L5.75 14.7501V18.2501H9.25L18.5 9L15 5.5Z" stroke="currentColor" stroke-width="1.5"></path>
            <path d="M20 18.25H13" stroke="currentColor" stroke-width="1.5"></path>
        </symbol>

        <symbol id="seo" viewBox="0 0 24 24" fill="none">
            <path
                d="M17 11C17 14.3137 14.3137 17 11 17C7.68629 17 5 14.3137 5 11C5 7.68629 7.68629 5 11 5C14.3137 5 17 7.68629 17 11Z"
                stroke="currentColor" stroke-width="1.5"></path>
            <path d="M15 15L20 20" stroke="currentColor" stroke-width="1.5"></path>
        </symbol>
    </defs>
</svg>