<svg version="1.1" xmlns="http://www.w3.org/2000/svg" xmlns:xlink="http://www.w3.org/1999/xlink">
    <defs>
        <!-- PRODUCT -->

        <symbol id="cursor" viewBox="0 0 24 26" fill="none">
            <path
                d="M7.35822 7.36856L6.60823 7.37237L6.60823 7.37237L7.35822 7.36856ZM7.33998 3.7762L7.78693 3.17393C7.5588 3.00463 7.25461 2.97876 7.00117 3.10709C6.74773 3.23543 6.58855 3.49593 6.58999 3.78001L7.33998 3.7762ZM10.2248 5.91702L9.77786 6.5193L9.77786 6.5193L10.2248 5.91702ZM18.8793 12.3395L18.8831 13.0895C19.206 13.0878 19.4915 12.8798 19.592 12.573C19.6926 12.2663 19.5855 11.9296 19.3263 11.7372L18.8793 12.3395ZM13.4908 12.3668L13.487 11.6169C13.227 11.6182 12.9863 11.754 12.8508 11.9758C12.7153 12.1976 12.7042 12.4738 12.8217 12.7057L13.4908 12.3668ZM16.7568 18.8167L17.0956 19.4858C17.4651 19.2987 17.613 18.8474 17.4259 18.4779L16.7568 18.8167ZM13.8902 20.2682L13.2211 20.607C13.3109 20.7845 13.4676 20.919 13.6566 20.9809C13.8456 21.0429 14.0515 21.0272 14.229 20.9373L13.8902 20.2682ZM10.6242 13.8184L11.2933 13.4796C11.1759 13.2477 10.9468 13.0931 10.6878 13.0711C10.4288 13.0491 10.1768 13.1627 10.0219 13.3715L10.6242 13.8184ZM7.41298 18.1457L6.66299 18.1495C6.66463 18.4723 6.87265 18.7578 7.17942 18.8584C7.4862 18.9589 7.82288 18.8518 8.01525 18.5926L7.41298 18.1457ZM8.10821 7.36476L8.08997 3.77239L6.58999 3.78001L6.60823 7.37237L8.10821 7.36476ZM6.89303 4.37848L9.77786 6.5193L10.6718 5.31474L7.78693 3.17393L6.89303 4.37848ZM9.77786 6.5193L18.4324 12.9418L19.3263 11.7372L10.6718 5.31474L9.77786 6.5193ZM18.8755 11.5895L13.487 11.6169L13.4946 13.1168L18.8831 13.0895L18.8755 11.5895ZM12.8217 12.7057L16.0876 19.1555L17.4259 18.4779L14.1599 12.028L12.8217 12.7057ZM16.4179 18.1476L13.5514 19.5991L14.229 20.9373L17.0956 19.4858L16.4179 18.1476ZM14.5593 19.9294L11.2933 13.4796L9.95509 14.1572L13.2211 20.607L14.5593 19.9294ZM10.0219 13.3715L6.8107 17.6987L8.01525 18.5926L11.2265 14.2653L10.0219 13.3715ZM8.16297 18.1418L8.10821 7.36475L6.60823 7.37237L6.66299 18.1495L8.16297 18.1418Z"
                fill="currentColor"></path>
        </symbol>

        <symbol id="cms" viewBox="0 0 24 24" fill="none">
            <path
                d="M12 4.875C10.3279 4.875 8.80801 5.2136 7.70146 5.76688C6.60238 6.31641 5.875 7.09872 5.875 8V16C5.875 16.9013 6.60238 17.6836 7.70146 18.2331C8.80801 18.7864 10.3279 19.125 12 19.125C13.6721 19.125 15.192 18.7864 16.2985 18.2331C17.3976 17.6836 18.125 16.9013 18.125 16V8C18.125 7.09872 17.3976 6.31641 16.2985 5.76688C15.192 5.2136 13.6721 4.875 12 4.875ZM12 6.125C13.5201 6.125 14.8406 6.43546 15.7395 6.88491C16.704 7.36713 16.875 7.82604 16.875 8C16.875 8.17396 16.704 8.63287 15.7395 9.11509C14.8406 9.56454 13.5201 9.875 12 9.875C10.4799 9.875 9.15938 9.56454 8.26047 9.11509C7.29604 8.63287 7.125 8.17396 7.125 8C7.125 7.82604 7.29604 7.36713 8.26047 6.88491C9.15938 6.43546 10.4799 6.125 12 6.125ZM16.875 9.90052V12C16.875 12.2307 16.7586 12.4631 16.5212 12.6877C16.2835 12.9125 15.9328 13.1207 15.4891 13.2982C14.6024 13.6528 13.3689 13.875 12 13.875C10.6311 13.875 9.39759 13.6528 8.51089 13.2982C8.06719 13.1207 7.71652 12.9125 7.47881 12.6877C7.24137 12.4631 7.125 12.2307 7.125 12V9.90052C8.2465 10.6493 10.0187 11.125 12 11.125C13.9813 11.125 15.7535 10.6493 16.875 9.90052ZM7.125 16V13.9005C8.2465 14.6493 10.0187 15.125 12 15.125C13.9813 15.125 15.7535 14.6493 16.875 13.9005V16C16.875 16.174 16.704 16.6329 15.7395 17.1151C14.8406 17.5645 13.5201 17.875 12 17.875C10.4799 17.875 9.15938 17.5645 8.26047 17.1151C7.29604 16.6329 7.125 16.174 7.125 16Z"
                fill="currentColor" stroke="currentColor" stroke-width="0.25"></path>
        </symbol>

        <symbol id="ecommerce" viewBox="0 0 24 24" fill="none">
            <path d="M15 4L17 11" stroke="currentColor" stroke-width="1.5"></path>
            <path d="M9 4L7 11" stroke="currentColor" stroke-width="1.5"></path>
            <path
                d="M19.6053 11.8977L17.2525 19.25H6.74746L4.39474 11.8977C4.2131 11.3301 4.63657 10.75 5.23252 10.75H18.7675C19.3634 10.75 19.7869 11.3301 19.6053 11.8977Z"
                stroke="currentColor" stroke-width="1.5"></path>
        </symbol>

        <symbol id="interactions" viewBox="0 0 24 24" fill="none">
            <path
                d="M12.75 15.3333C12.75 14.9191 12.4142 14.5833 12 14.5833H5.76619C5.57187 14.5833 5.45184 14.3713 5.55182 14.2047L11.25 4.70774V9.77778C11.25 10.192 11.5858 10.5278 12 10.5278H18.1503C18.349 10.5278 18.4683 10.7484 18.3595 10.9147L12.75 19.4847V15.3333Z"
                stroke="currentColor" stroke-width="1.5" stroke-linejoin="round"></path>
        </symbol>

        <symbol id="localization" viewBox="0 0 24 24" fill="none">
            <circle cx="12" cy="12" r="8" stroke="currentColor" stroke-width="1.5"></circle>
            <ellipse cx="12" cy="12" rx="3" ry="8" stroke="currentColor" stroke-width="1.5"></ellipse>
            <ellipse cx="12" cy="12" rx="3" ry="8" transform="rotate(90 12 12)" stroke="currentColor"
                stroke-width="1.5"></ellipse>
        </symbol>

        <symbol id="edit" viewBox="0 0 24 24" fill="none" xmlns="http://www.w3.org/2000/svg">
            <path d="M15 5.5L5.75 14.7501V18.2501H9.25L18.5 9L15 5.5Z" stroke="currentColor" stroke-width="1.5"></path>
            <path d="M20 18.25H13" stroke="currentColor" stroke-width="1.5"></path>
        </symbol>

        <symbol id="seo" viewBox="0 0 24 24" fill="none">
            <path
                d="M17 11C17 14.3137 14.3137 17 11 17C7.68629 17 5 14.3137 5 11C5 7.68629 7.68629 5 11 5C14.3137 5 17 7.68629 17 11Z"
                stroke="currentColor" stroke-width="1.5"></path>
            <path d="M15 15L20 20" stroke="currentColor" stroke-width="1.5"></path>
        </symbol>


        <!-- SOLUTIONS -->

        <symbol id="freelancers" viewBox="0 0 24 24" fill="none">
            <circle cx="11" cy="8" r="4" stroke="currentColor" stroke-width="1.5"></circle>
            <path d="M4 17.5L4 16C4.00001 13.7909 5.79087 12 8 12H11" stroke="currentColor" stroke-width="1.5"></path>
            <path d="M5 20H18.0001L21.3502 15.8123C21.6121 15.485 21.379 15 20.9597 15H12.0001L8.49994 20H5Z"
                stroke="currentColor" stroke-width="1.5" stroke-linecap="round"></path>
        </symbol>

        <symbol id="agencies" viewBox="0 0 24 24" fill="none">
            <circle cx="12" cy="8" r="2.25" stroke="currentColor" stroke-width="1.5"></circle>
            <path d="M15.5 10.25C16.7426 10.25 17.75 9.24264 17.75 8C17.75 6.75736 16.7426 5.75 15.5 5.75"
                stroke="currentColor" stroke-width="1.5"></path>
            <path d="M8.5 10.25C7.25736 10.25 6.25 9.24264 6.25 8C6.25 6.75736 7.25736 5.75 8.5 5.75"
                stroke="currentColor" stroke-width="1.5"></path>
            <path
                d="M7.75 19V15.25C7.75 14.1454 8.64543 13.25 9.75 13.25H14.25C15.3546 13.25 16.25 14.1454 16.25 15.25V19"
                stroke="currentColor" stroke-width="1.5"></path>
            <path d="M17.5 13.25H17.75C18.8546 13.25 19.75 14.1454 19.75 15.25V18" stroke="currentColor"
                stroke-width="1.5"></path>
            <path d="M6.5 13.25H6.25C5.14543 13.25 4.25 14.1454 4.25 15.25V18" stroke="currentColor" stroke-width="1.5">
            </path>
        </symbol>

        <symbol id="startups" viewBox="0 0 24 24" fill="none">
            <path d="M12 15.9971V12" stroke="currentColor" stroke-width="1.5"></path>
            <path d="M12 12C12 7.99594 15.2459 4.75 19.25 4.75C19.25 8.75406 16.0041 12 12 12Z" stroke="currentColor"
                stroke-width="1.5"></path>
            <path d="M12 12C12 9.1005 9.6495 6.75 6.75 6.75C6.75 9.64949 9.10051 12 12 12Z" stroke="currentColor"
                stroke-width="1.5"></path>
            <path d="M6.57544 18.5754C7.85907 17.0036 9.81235 16 12 16C14.1877 16 16.141 17.0036 17.4246 18.5754"
                stroke="currentColor" stroke-width="1.5"></path>
        </symbol>

        <symbol id="enterprise" viewBox="0 0 24 24" fill="none">
            <path
                d="M10 5.875C9.37868 5.875 8.875 6.37868 8.875 7V8.875H7C6.37868 8.875 5.875 9.37868 5.875 10V17C5.875 17.6213 6.37868 18.125 7 18.125H17C17.6213 18.125 18.125 17.6213 18.125 17V10C18.125 9.37868 17.6213 8.875 17 8.875H15.125V7C15.125 6.37868 14.6213 5.875 14 5.875H10ZM10.125 7.125H13.875V8.875H10.125V7.125ZM7.125 10.125H16.875V16.875H7.125V10.125Z"
                fill="currentColor" stroke="currentColor" stroke-width="0.25"></path>
        </symbol>

        <symbol id="global_alliances" viewBox="0 0 24 24" fill="none">
            <path fill-rule="evenodd" clip-rule="evenodd"
                d="M10.0978 8.33231C10.2289 7.68975 10.3926 7.10879 10.5809 6.60649C10.8339 5.93183 11.1171 5.43796 11.3935 5.12623C11.6706 4.81363 11.8773 4.75 12 4.75C12.1227 4.75 12.3294 4.81363 12.6065 5.12623C12.8829 5.43796 13.1661 5.93183 13.4191 6.60649C13.6074 7.10879 13.7711 7.68975 13.9022 8.33231C13.2887 8.27828 12.6518 8.25 12 8.25C11.3482 8.25 10.7113 8.27828 10.0978 8.33231ZM9.17643 6.0798C9.29803 5.75555 9.43253 5.44808 9.5803 5.16361C7.52274 5.89189 5.89189 7.52274 5.16361 9.5803C5.44808 9.43253 5.75555 9.29803 6.0798 9.17643C6.7946 8.90838 7.62433 8.6907 8.53385 8.53385C8.6907 7.62434 8.90838 6.7946 9.17643 6.0798ZM14.8236 6.0798C14.702 5.75555 14.5675 5.44808 14.4197 5.16361C16.4773 5.89189 18.1081 7.52274 18.8364 9.5803C18.5519 9.43253 18.2444 9.29803 17.9202 9.17643C17.2054 8.90838 16.3757 8.6907 15.4661 8.53385C15.3093 7.62434 15.0916 6.7946 14.8236 6.0798ZM5.16361 14.4197C5.89189 16.4773 7.52274 18.1081 9.5803 18.8364C9.43253 18.5519 9.29803 18.2444 9.17643 17.9202C8.90838 17.2054 8.6907 16.3757 8.53385 15.4661C7.62434 15.3093 6.7946 15.0916 6.0798 14.8236C5.75555 14.702 5.44808 14.5675 5.16361 14.4197ZM5.12623 12.6065C4.81363 12.3294 4.75 12.1227 4.75 12C4.75 11.8773 4.81363 11.6706 5.12623 11.3935C5.43796 11.1171 5.93183 10.8339 6.60649 10.5809C7.10879 10.3926 7.68975 10.2289 8.33231 10.0978C8.27828 10.7113 8.25 11.3482 8.25 12C8.25 12.6518 8.27828 13.2887 8.33231 13.9022C7.68975 13.7711 7.10879 13.6074 6.60649 13.4191C5.93183 13.1661 5.43796 12.8829 5.12623 12.6065ZM12 15.75V14.25C11.2543 14.25 10.5372 14.2104 9.86246 14.1375C9.7896 13.4628 9.75 12.7457 9.75 12C9.75 11.2543 9.7896 10.5372 9.86246 9.86246C10.5372 9.7896 11.2543 9.75 12 9.75C12.7457 9.75 13.4628 9.7896 14.1375 9.86246C14.2104 10.5372 14.25 11.2543 14.25 12H15.75C15.75 11.3482 15.7217 10.7113 15.6677 10.0978C16.3102 10.2289 16.8912 10.3926 17.3935 10.5809C18.0682 10.8339 18.562 11.1171 18.8738 11.3935C19.1864 11.6706 19.25 11.8773 19.25 12H20.75C20.75 7.16751 16.8325 3.25 12 3.25C7.16751 3.25 3.25 7.16751 3.25 12C3.25 16.8325 7.16751 20.75 12 20.75V19.25C11.8773 19.25 11.6706 19.1864 11.3935 18.8738C11.1171 18.562 10.8339 18.0682 10.5809 17.3935C10.3926 16.8912 10.2289 16.3102 10.0978 15.6677C10.7113 15.7217 11.3482 15.75 12 15.75Z"
                fill="currentColor"></path>
            <path
                d="M17.5 20L14.4981 16.9499C13.8454 16.2867 13.8325 15.2155 14.4692 14.5363C15.1431 13.8174 16.2732 13.8219 16.9415 14.5462L17.5 15.1515L18.0585 14.5462C18.7268 13.8219 19.8569 13.8174 20.5308 14.5363C21.1675 15.2155 21.1546 16.2867 20.5019 16.9499L17.5 20Z"
                fill="currentColor"></path>
        </symbol>
    </defs>
</svg>