<svg width="64" height="64" viewBox="0 0 64 64" fill="none" xmlns="http://www.w3.org/2000/svg">
<rect x="0.5" y="0.5" width="63" height="63" rx="9.5" fill="url(#paint0_linear_737_66)"/>
<rect x="0.5" y="0.5" width="63" height="63" rx="9.5" stroke="#1F2B3E"/>
<path d="M15 46.8222V39.1778H16.2297V40.4222H16.2912C16.3834 40.2247 16.4859 40.042 16.5986 39.8741C16.7216 39.6963 16.865 39.5432 17.029 39.4148C17.2032 39.2864 17.403 39.1877 17.6285 39.1185C17.8539 39.0395 18.1204 39 18.4278 39C18.9504 39 19.432 39.1235 19.8727 39.3704C20.3133 39.6074 20.6412 40.0025 20.8564 40.5556H20.8872C21.0307 40.1407 21.2971 39.7802 21.6865 39.4741C22.0861 39.158 22.6241 39 23.3005 39C24.11 39 24.7402 39.2568 25.1911 39.7704C25.6523 40.2741 25.8828 40.9901 25.8828 41.9185V46.8222H24.6531V42.1259C24.6531 41.4444 24.5148 40.9309 24.2381 40.5852C23.9614 40.2395 23.5208 40.0667 22.9162 40.0667C22.6703 40.0667 22.4346 40.0963 22.2091 40.1556C21.9939 40.2148 21.7992 40.3037 21.625 40.4222C21.4508 40.5407 21.3125 40.6938 21.21 40.8815C21.1075 41.0593 21.0563 41.2716 21.0563 41.5185V46.8222H19.8266V42.1259C19.8266 41.4444 19.6882 40.9309 19.4115 40.5852C19.1349 40.2395 18.7045 40.0667 18.1204 40.0667C17.8744 40.0667 17.6387 40.0963 17.4133 40.1556C17.1878 40.2148 16.988 40.3037 16.8138 40.4222C16.6396 40.5407 16.4961 40.6938 16.3834 40.8815C16.2809 41.0593 16.2297 41.2716 16.2297 41.5185V46.8222H15Z" fill="#848D97"/>
<path d="M31.4172 47C30.8843 47 30.3976 46.9062 29.9569 46.7185C29.5163 46.5309 29.1371 46.2642 28.8195 45.9185C28.512 45.563 28.2712 45.1432 28.097 44.6593C27.9228 44.1654 27.8357 43.6123 27.8357 43C27.8357 42.3975 27.9228 41.8494 28.097 41.3556C28.2712 40.8617 28.512 40.442 28.8195 40.0963C29.1371 39.7407 29.5163 39.4691 29.9569 39.2815C30.3976 39.0938 30.8843 39 31.4172 39C31.9501 39 32.4317 39.0938 32.8621 39.2815C33.3028 39.4691 33.6819 39.7407 33.9996 40.0963C34.3173 40.442 34.5632 40.8617 34.7374 41.3556C34.9116 41.8494 34.9987 42.3975 34.9987 43C34.9987 43.6123 34.9116 44.1654 34.7374 44.6593C34.5632 45.1432 34.3173 45.563 33.9996 45.9185C33.6819 46.2642 33.3028 46.5309 32.8621 46.7185C32.4317 46.9062 31.9501 47 31.4172 47ZM31.4172 45.9481C32.0833 45.9481 32.6264 45.7506 33.0466 45.3556C33.4667 44.9605 33.6768 44.358 33.6768 43.5481V42.4519C33.6768 41.642 33.4667 41.0395 33.0466 40.6444C32.6264 40.2494 32.0833 40.0519 31.4172 40.0519C30.7511 40.0519 30.208 40.2494 29.7879 40.6444C29.3677 41.0395 29.1576 41.642 29.1576 42.4519V43.5481C29.1576 44.358 29.3677 44.9605 29.7879 45.3556C30.208 45.7506 30.7511 45.9481 31.4172 45.9481Z" fill="#848D97"/>
<path d="M37.0211 46.8222V39.1778H38.2508V40.5852H38.3277C38.4711 40.2198 38.7273 39.8938 39.0962 39.6074C39.4651 39.321 39.9724 39.1778 40.618 39.1778H41.0945V40.363H40.372C39.706 40.363 39.1833 40.4864 38.8042 40.7333C38.4353 40.9704 38.2508 41.2716 38.2508 41.637V46.8222H37.0211Z" fill="#848D97"/>
<path d="M45.5722 47C45.0291 47 44.5372 46.9062 44.0966 46.7185C43.6662 46.5309 43.2921 46.2642 42.9745 45.9185C42.667 45.563 42.4262 45.1432 42.252 44.6593C42.0881 44.1654 42.0061 43.6123 42.0061 43C42.0061 42.3975 42.0881 41.8494 42.252 41.3556C42.4262 40.8617 42.667 40.442 42.9745 40.0963C43.2921 39.7407 43.6662 39.4691 44.0966 39.2815C44.5372 39.0938 45.0291 39 45.5722 39C46.1051 39 46.5816 39.0938 47.0017 39.2815C47.4219 39.4691 47.7805 39.7309 48.0777 40.0667C48.3749 40.3926 48.6003 40.7827 48.7541 41.237C48.918 41.6914 49 42.1901 49 42.7333V43.2963H43.2973V43.6519C43.2973 43.9778 43.3485 44.284 43.451 44.5704C43.5637 44.8469 43.7174 45.0889 43.9121 45.2963C44.1171 45.5037 44.363 45.6667 44.6499 45.7852C44.9471 45.9037 45.2802 45.963 45.6491 45.963C46.1512 45.963 46.5867 45.8494 46.9556 45.6222C47.3348 45.3951 47.6268 45.0691 47.8318 44.6444L48.7079 45.2519C48.4518 45.7753 48.0521 46.2 47.509 46.5259C46.9659 46.842 46.3203 47 45.5722 47ZM45.5722 39.9926C45.234 39.9926 44.9266 40.0519 44.6499 40.1704C44.3733 40.279 44.1324 40.437 43.9275 40.6444C43.7328 40.8519 43.5791 41.0988 43.4664 41.3852C43.3536 41.6617 43.2973 41.9679 43.2973 42.3037V42.4074H47.6781V42.2444C47.6781 41.563 47.4834 41.0198 47.094 40.6148C46.7148 40.2 46.2076 39.9926 45.5722 39.9926Z" fill="#848D97"/>
<path d="M15 46.8222V39.1778H16.2297V40.4222H16.2912C16.3834 40.2247 16.4859 40.042 16.5986 39.8741C16.7216 39.6963 16.865 39.5432 17.029 39.4148C17.2032 39.2864 17.403 39.1877 17.6285 39.1185C17.8539 39.0395 18.1204 39 18.4278 39C18.9504 39 19.432 39.1235 19.8727 39.3704C20.3133 39.6074 20.6412 40.0025 20.8564 40.5556H20.8872C21.0307 40.1407 21.2971 39.7802 21.6865 39.4741C22.0861 39.158 22.6241 39 23.3005 39C24.11 39 24.7402 39.2568 25.1911 39.7704C25.6523 40.2741 25.8828 40.9901 25.8828 41.9185V46.8222H24.6531V42.1259C24.6531 41.4444 24.5148 40.9309 24.2381 40.5852C23.9614 40.2395 23.5208 40.0667 22.9162 40.0667C22.6703 40.0667 22.4346 40.0963 22.2091 40.1556C21.9939 40.2148 21.7992 40.3037 21.625 40.4222C21.4508 40.5407 21.3125 40.6938 21.21 40.8815C21.1075 41.0593 21.0563 41.2716 21.0563 41.5185V46.8222H19.8266V42.1259C19.8266 41.4444 19.6882 40.9309 19.4115 40.5852C19.1349 40.2395 18.7045 40.0667 18.1204 40.0667C17.8744 40.0667 17.6387 40.0963 17.4133 40.1556C17.1878 40.2148 16.988 40.3037 16.8138 40.4222C16.6396 40.5407 16.4961 40.6938 16.3834 40.8815C16.2809 41.0593 16.2297 41.2716 16.2297 41.5185V46.8222H15Z" stroke="#848D97" stroke-width="0.2" stroke-linejoin="round"/>
<path d="M31.4172 47C30.8843 47 30.3976 46.9062 29.9569 46.7185C29.5163 46.5309 29.1371 46.2642 28.8195 45.9185C28.512 45.563 28.2712 45.1432 28.097 44.6593C27.9228 44.1654 27.8357 43.6123 27.8357 43C27.8357 42.3975 27.9228 41.8494 28.097 41.3556C28.2712 40.8617 28.512 40.442 28.8195 40.0963C29.1371 39.7407 29.5163 39.4691 29.9569 39.2815C30.3976 39.0938 30.8843 39 31.4172 39C31.9501 39 32.4317 39.0938 32.8621 39.2815C33.3028 39.4691 33.6819 39.7407 33.9996 40.0963C34.3173 40.442 34.5632 40.8617 34.7374 41.3556C34.9116 41.8494 34.9987 42.3975 34.9987 43C34.9987 43.6123 34.9116 44.1654 34.7374 44.6593C34.5632 45.1432 34.3173 45.563 33.9996 45.9185C33.6819 46.2642 33.3028 46.5309 32.8621 46.7185C32.4317 46.9062 31.9501 47 31.4172 47ZM31.4172 45.9481C32.0833 45.9481 32.6264 45.7506 33.0466 45.3556C33.4667 44.9605 33.6768 44.358 33.6768 43.5481V42.4519C33.6768 41.642 33.4667 41.0395 33.0466 40.6444C32.6264 40.2494 32.0833 40.0519 31.4172 40.0519C30.7511 40.0519 30.208 40.2494 29.7879 40.6444C29.3677 41.0395 29.1576 41.642 29.1576 42.4519V43.5481C29.1576 44.358 29.3677 44.9605 29.7879 45.3556C30.208 45.7506 30.7511 45.9481 31.4172 45.9481Z" stroke="#848D97" stroke-width="0.2" stroke-linejoin="round"/>
<path d="M37.0211 46.8222V39.1778H38.2508V40.5852H38.3277C38.4711 40.2198 38.7273 39.8938 39.0962 39.6074C39.4651 39.321 39.9724 39.1778 40.618 39.1778H41.0945V40.363H40.372C39.706 40.363 39.1833 40.4864 38.8042 40.7333C38.4353 40.9704 38.2508 41.2716 38.2508 41.637V46.8222H37.0211Z" stroke="#848D97" stroke-width="0.2" stroke-linejoin="round"/>
<path d="M45.5722 47C45.0291 47 44.5372 46.9062 44.0966 46.7185C43.6662 46.5309 43.2921 46.2642 42.9745 45.9185C42.667 45.563 42.4262 45.1432 42.252 44.6593C42.0881 44.1654 42.0061 43.6123 42.0061 43C42.0061 42.3975 42.0881 41.8494 42.252 41.3556C42.4262 40.8617 42.667 40.442 42.9745 40.0963C43.2921 39.7407 43.6662 39.4691 44.0966 39.2815C44.5372 39.0938 45.0291 39 45.5722 39C46.1051 39 46.5816 39.0938 47.0017 39.2815C47.4219 39.4691 47.7805 39.7309 48.0777 40.0667C48.3749 40.3926 48.6003 40.7827 48.7541 41.237C48.918 41.6914 49 42.1901 49 42.7333V43.2963H43.2973V43.6519C43.2973 43.9778 43.3485 44.284 43.451 44.5704C43.5637 44.8469 43.7174 45.0889 43.9121 45.2963C44.1171 45.5037 44.363 45.6667 44.6499 45.7852C44.9471 45.9037 45.2802 45.963 45.6491 45.963C46.1512 45.963 46.5867 45.8494 46.9556 45.6222C47.3348 45.3951 47.6268 45.0691 47.8318 44.6444L48.7079 45.2519C48.4518 45.7753 48.0521 46.2 47.509 46.5259C46.9659 46.842 46.3203 47 45.5722 47ZM45.5722 39.9926C45.234 39.9926 44.9266 40.0519 44.6499 40.1704C44.3733 40.279 44.1324 40.437 43.9275 40.6444C43.7328 40.8519 43.5791 41.0988 43.4664 41.3852C43.3536 41.6617 43.2973 41.9679 43.2973 42.3037V42.4074H47.6781V42.2444C47.6781 41.563 47.4834 41.0198 47.094 40.6148C46.7148 40.2 46.2076 39.9926 45.5722 39.9926Z" stroke="#848D97" stroke-width="0.2" stroke-linejoin="round"/>
<path d="M31.5 17V32M39 24.5L24 24.5" stroke="#848D97" stroke-width="2" stroke-linecap="round"/>
<defs>
<linearGradient id="paint0_linear_737_66" x1="32" y1="0" x2="32" y2="64" gradientUnits="userSpaceOnUse">
<stop stop-color="#1A2434"/>
<stop offset="1" stop-color="#131923"/>
</linearGradient>
</defs>
</svg>
