<svg xmlns="http://www.w3.org/2000/svg" viewBox="0 0 81.3 32" xml:space="preserve">
  <path d="M77.9 7.7c-2.1-2.1-5.1-3.4-8.6-3.4-3.4 0-6.5 1.3-8.6 3.4-1.3 1.3-2.3 2.9-2.9 4.8-.5-1.8-1.5-3.3-2.8-4.6-2.1-2-5.1-3.2-8.6-3.2h-8.9v13.4c-.6-1.2-1.6-2.1-2.9-2.7 1.3-.9 2.3-2.4 2.2-4.5v-.1c0-1.8-.7-3.4-2.1-4.5-1.3-1.1-3.2-1.6-5.5-1.6H18.8v13.4c-.6-1.2-1.6-2.1-2.9-2.7 1.3-.9 2.3-2.4 2.3-4.6v-.1c0-1.8-.8-3.4-2.1-4.5s-3.2-1.6-5.5-1.6H0v22.6h10.8c2.5 0 4.6-.5 6.1-1.6.8-.6 1.4-1.3 1.9-2.2v3.8h10.8c2.5 0 4.6-.5 6.1-1.6.8-.6 1.4-1.3 1.9-2.2v3.8h8.9c3.5 0 6.5-1.2 8.6-3.3 1.3-1.3 2.3-2.8 2.8-4.5.6 1.8 1.5 3.5 2.9 4.8 2.1 2.1 5.1 3.4 8.6 3.4 3.4 0 6.5-1.3 8.6-3.4 2.1-2.1 3.4-5 3.4-8.2v-.1c-.1-3.2-1.3-6.1-3.5-8.2zM5.6 9.9h4.2c.9 0 1.6.2 2 .5.4.3.6.6.6 1.2v.1c0 .7-.2 1-.7 1.3-.5.3-1.2.5-2.2.5H5.6V9.9zm8 10.4c0 .7-.2 1-.7 1.3-.4.3-1.2.5-2.2.5H5.6v-3.7h5c1.2 0 1.9.2 2.4.5.4.3.6.7.6 1.4zM24.4 9.9h4.2c.9 0 1.6.2 2 .5.4.3.6.6.6 1.2v.1c0 .7-.2 1-.7 1.3-.5.3-1.2.5-2.2.5h-3.9V9.9zm8 10.4c0 .7-.2 1-.7 1.3-.4.3-1.2.5-2.2.5h-5.1v-3.7h5c1.2 0 1.9.2 2.4.5.4.3.6.7.6 1.4zm20-4.2c0 3.6-2.3 5.9-6 5.9h-3.2V10h3.2c3.7 0 6 2.4 6 6.1zm22.9 0c0 3.4-2.4 6.2-6 6.2-3.5 0-6-2.8-6-6.3v-.1c0-3.5 2.4-6.2 5.9-6.2 3.6 0 6.1 2.9 6.1 6.4z" fill="#fff"/>
</svg>
