<svg xmlns="http://www.w3.org/2000/svg" viewBox="0 0 130 32" xml:space="preserve">
  <path d="M27.3 5.6c-2.1-1-4.3-1.7-6.7-2.1-.3.5-.6 1.2-.9 1.8-2.5-.4-4.9-.4-7.4 0-.2-.6-.6-1.2-.9-1.8-2.2.4-4.4 1.2-6.5 2.1C.7 12-.4 18.2.1 24.3c2.8 2.1 5.5 3.3 8.2 4.2.7-.9 1.2-1.9 1.7-2.9-1-.4-1.9-.8-2.8-1.3.2-.2.5-.3.7-.5 5.3 2.5 11.1 2.5 16.3 0 .2.2.4.4.7.5-.9.5-1.8 1-2.8 1.3.5 1 1.1 2 1.7 2.9 2.7-.8 5.4-2.1 8.2-4.2.8-7.1-1-13.2-4.7-18.7zM10.8 20.5c-1.6 0-2.9-1.5-2.9-3.3s1.3-3.3 2.9-3.3c1.6 0 2.9 1.5 2.9 3.3 0 1.8-1.3 3.3-2.9 3.3zm10.7 0c-1.6 0-2.9-1.5-2.9-3.3s1.3-3.3 2.9-3.3c1.6 0 2.9 1.5 2.9 3.3 0 1.8-1.3 3.3-2.9 3.3zM43.3 9.9h6.9c1.7 0 3.1.3 4.2.8 1.2.5 2 1.3 2.6 2.2.6.9.9 2 .9 3.3 0 1.2-.3 2.3-.9 3.2-.6 1-1.5 1.7-2.7 2.3-1.2.6-2.7.9-4.6.9h-6.4V9.9zm6.4 9.4c1.1 0 2-.3 2.6-.9.6-.6.9-1.4.9-2.3 0-.9-.3-1.7-.8-2.2-.5-.5-1.4-.8-2.4-.8h-2.2v6.2h1.9zm18.6 3.3c-1-.3-1.8-.6-2.6-1.1v-3c.6.5 1.4.8 2.3 1.1 1 .3 1.9.4 2.8.4.4 0 .7-.1 1-.2.2-.1.3-.3.3-.4 0-.2-.1-.3-.2-.5-.1-.1-.4-.2-.7-.3l-2.1-.5c-1.2-.3-2.1-.7-2.6-1.2s-.8-1.2-.8-2c0-.7.2-1.3.7-1.8.4-.5 1.1-.9 1.9-1.2.8-.3 1.8-.4 2.9-.4 1 0 1.9.1 2.7.3.8.2 1.5.5 2.1.8v2.8c-.6-.3-1.2-.6-1.9-.8-.7-.2-1.5-.3-2.2-.3-1.1 0-1.7.2-1.7.6 0 .2.1.3.3.4.2.1.5.2.9.3l1.8.3c1.2.2 2 .6 2.6 1.1.6.5.9 1.3.9 2.3 0 1.1-.5 2-1.4 2.6-.9.6-2.3 1-4 1-1 0-2-.1-3-.3zm12.6-.4c-1-.5-1.8-1.2-2.3-2.1-.5-.9-.8-1.8-.8-2.9 0-1.1.3-2.1.8-2.9.5-.9 1.3-1.5 2.3-2 1-.5 2.3-.7 3.7-.7 1.8 0 3.2.4 4.4 1.1V16c-.4-.3-.9-.5-1.4-.7-.6-.2-1.1-.3-1.8-.3-1.1 0-2 .2-2.6.6-.6.4-.9.9-.9 1.6 0 .7.3 1.2.9 1.6.6.4 1.5.6 2.6.6.6 0 1.2-.1 1.8-.3.6-.2 1.1-.4 1.5-.6v3.2c-1.3.8-2.8 1.2-4.5 1.2-1.4 0-2.7-.2-3.7-.7zm12.6 0c-1-.5-1.8-1.2-2.3-2.1-.5-.9-.8-1.9-.8-3s.3-2.1.8-2.9 1.3-1.5 2.3-2c1-.5 2.2-.7 3.6-.7s2.6.2 3.6.7c1 .5 1.8 1.1 2.3 2 .5.8.8 1.8.8 2.9 0 1.1-.3 2.1-.8 3-.5.9-1.3 1.6-2.3 2.1-1 .5-2.2.8-3.6.8-1.3-.1-2.6-.3-3.6-.8zm5.4-3.2c.4-.4.6-1 .6-1.7s-.2-1.3-.6-1.7c-.4-.4-1-.6-1.8-.6s-1.4.2-1.8.6c-.4.4-.6 1-.6 1.7s.2 1.3.6 1.7c.4.4 1 .7 1.8.7.8-.1 1.4-.3 1.8-.7zm15.7-6.8v3.9c-.5-.3-1-.5-1.8-.5-.9 0-1.7.3-2.2.9-.5.6-.8 1.5-.8 2.7v3.3h-4.4V12h4.3v3.4c.2-1.2.6-2.1 1.1-2.7.5-.6 1.2-.9 2-.9.8-.1 1.3.1 1.8.4zM129 9.5v13h-4.4v-2.4c-.4.9-.9 1.6-1.7 2-.8.5-1.7.7-2.8.7-1 0-1.8-.2-2.6-.7-.7-.5-1.3-1.2-1.7-2-.4-.9-.6-1.8-.6-2.9 0-1.1.2-2.1.6-3 .4-.9 1-1.6 1.8-2.1s1.7-.7 2.7-.7c2.1 0 3.5.9 4.2 2.8V9.5h4.5zm-5 9.4c.4-.4.7-1 .7-1.7s-.2-1.2-.6-1.6c-.4-.4-1-.6-1.8-.6-.7 0-1.3.2-1.8.6-.4.4-.7 1-.7 1.7s.2 1.2.7 1.7c.4.4 1 .7 1.7.7.8-.2 1.4-.4 1.8-.8zm-62.4-5.8c1.2 0 2.2-.9 2.2-2s-1-2-2.2-2c-1.2 0-2.2.9-2.2 2 .1 1.1 1 2 2.2 2zm-2.1 1.4c1.3.6 3 .6 4.3 0v8.2h-4.3v-8.2z" fill="#fff"/>
</svg>
