<svg xmlns="http://www.w3.org/2000/svg" viewBox="0 0 116 32" xml:space="preserve">
  <path d="m13.5 8.9-6.7 4.3 6.7 4.3-6.7 4.3-6.7-4.3 6.7-4.3L.1 8.9l6.7-4.3 6.7 4.3zM6.7 23.1l6.7-4.3 6.7 4.3-6.7 4.3-6.7-4.3zm6.8-5.7 6.7-4.3-6.7-4.2 6.7-4.3 6.7 4.3-6.7 4.3 6.7 4.3-6.7 4.3-6.7-4.4zm18.6-8.5h5.4c3.5 0 6.3 2 6.3 6.6v1c0 4.6-2.7 6.7-6.2 6.7h-5.5V8.9zm3 2.6v9h2.3c2 0 3.3-1.3 3.3-4.1v-.7c0-2.8-1.4-4.1-3.4-4.1h-2.2v-.1zm10.3.1h2.4l.4 2.7c.5-1.8 1.6-2.8 3.8-2.8h.8v3.1h-1.2c-2.5 0-3.1.9-3.1 3.3v5.3h-3l-.1-11.6zm7.9 6v-.3c0-3.8 2.5-5.9 5.8-5.9 3.4 0 5.8 2.1 5.8 5.9v.3c0 3.8-2.3 5.8-5.8 5.8-3.7 0-5.8-2-5.8-5.8zm8.6 0v-.3c0-2.1-1.1-3.4-2.8-3.4-1.7 0-2.8 1.2-2.8 3.4v.3c0 2.1 1.1 3.2 2.8 3.2 1.7 0 2.8-1.2 2.8-3.2zm4.6-6H69l.3 2.2c.6-1.5 1.9-2.5 3.8-2.5 2.9 0 4.8 2.1 4.8 6v.3c0 3.8-2.1 5.8-4.8 5.8-1.8 0-3.1-.8-3.7-2.1v5.8h-2.9V11.6zm8.4 6v-.3c0-2.3-1.2-3.4-2.7-3.4-1.7 0-2.8 1.3-2.8 3.4v.2c0 2 1.1 3.3 2.7 3.3 1.7 0 2.8-1.1 2.8-3.2zm7.5 3.4-.3 2.1h-2.6V7.8h2.9v5.9c.6-1.5 1.9-2.3 3.7-2.3 2.7 0 4.8 1.9 4.8 5.7v.4c0 3.8-1.9 6-4.8 6-1.9-.1-3.1-1-3.7-2.5zm5.5-3.6v-.3c0-2.1-1.1-3.3-2.7-3.3s-2.8 1.3-2.8 3.3v.3c0 2.1 1.1 3.4 2.7 3.4 1.8 0 2.8-1.1 2.8-3.4zm4.4.2v-.3c0-3.8 2.5-5.9 5.8-5.9 3.4 0 5.8 2.1 5.8 5.9v.3c0 3.8-2.4 5.8-5.8 5.8-3.7 0-5.8-2-5.8-5.8zm8.5 0v-.3c0-2.1-1.1-3.4-2.8-3.4-1.7 0-2.8 1.2-2.8 3.4v.3c0 2.1 1.1 3.2 2.8 3.2 1.8 0 2.8-1.2 2.8-3.2zm7-.5-4-5.5h3.5l2.3 3.4 2.4-3.4h3.4l-4.1 5.5 4.3 6h-3.4l-2.6-3.8-2.6 3.8h-3.5l4.3-6z" fill="#fff"/>
</svg>
