<svg xmlns="http://www.w3.org/2000/svg" viewBox="0 0 111 32" xml:space="preserve">
  <path d="M98.2 3.3C91.1 3.3 85.3 9 85.3 16c0 7 5.7 12.7 12.8 12.7 7.1 0 12.8-5.7 12.8-12.7.1-7-5.6-12.7-12.7-12.7zM.1 4.3v4.1h9.6v15.1H.1v4.1h23.3v-4.1h-9.5v-15h9.5V4.3H.1zm29.5 0v23.3h11.2C48 27.6 53 22.5 53 16S48.1 4.6 41 4.4H29.6zm28.5 0v23.3h23.5v-4.1H62.3V18h15.1v-4H62.3V8.5h19.3V4.3H58.1zm40.1 3.4c4.6 0 8.4 3.7 8.4 8.3 0 4.6-3.8 8.3-8.4 8.3s-8.4-3.7-8.4-8.3c0-4.5 3.7-8.3 8.4-8.3zm-64.4.7h7.1c4.6.1 7.6 3.3 7.6 7.7s-3 7.5-7.7 7.6h-7V8.4z" fill="#fff"/>
</svg>
