<svg xmlns="http://www.w3.org/2000/svg" viewBox="0 0 134 32" xml:space="preserve">
  <path d="M3.7 23c-.5 0-1-.1-1.4-.4-.4-.2-.8-.6-1-1-.2-.4-.4-.9-.3-1.4 0-.5.2-1 .4-1.4l5-7.8c.3-.4.6-.8 1-1s.9-.3 1.4-.3c.5 0 1 .2 1.4.4.4.3.8.6 1 1.1.5.9.4 1.9-.1 2.7l-5 7.8c-.3.4-.6.7-1 .9-.5.3-1 .4-1.4.4zm8.5 0c-1 0-1.9-.5-2.4-1.4-.2-.4-.4-.9-.3-1.4 0-.5.2-1 .4-1.4l5-7.8c.3-.4.6-.8 1-1 .4-.2.9-.4 1.4-.3 1 0 1.9.6 2.4 1.5s.4 1.9-.2 2.8l-5 7.8c-.3.4-.6.7-1 .9-.4.2-.9.3-1.3.3zm8.3.1c1.4 0 2.6-1.1 2.6-2.5s-1.1-2.5-2.6-2.5c-1.4 0-2.6 1.1-2.6 2.5s1.2 2.5 2.6 2.5zm111-4.9c.8 0 1.2.5 1.2 1.4v3.1h1v-3.2c0-1.5-.7-2.4-2.1-2.4-.5 0-1.4.1-1.9 1.1-.1-.3-.3-.5-.6-.7-.2-.2-.5-.3-.8-.3h-.6c-.4 0-1.2.3-1.5.9v-.8h-1v5.5h1v-2.9c0-1.1.7-1.6 1.5-1.6.7 0 1.2.5 1.2 1.4v3.1h1v-2.9c.2-1 .7-1.7 1.6-1.7zm-10.1 3.6c.5 0 .9-.2 1.3-.5.3-.3.5-.8.5-1.3 0-1.1-.8-1.8-1.8-1.8s-1.8.7-1.8 1.8c0 .5.2 1 .5 1.3.4.4.9.6 1.3.5zm0 1.1c-1.5 0-2.8-1.1-2.8-2.9 0-1.7 1.3-2.8 2.8-2.8 1.5 0 2.8 1.1 2.8 2.8.1 1.7-1.2 2.9-2.8 2.9zm-8.2-2.9c0-1.7 1.3-2.8 2.8-2.8.4 0 .8.1 1.1.2.4.2.7.4.9.7l-.8.7c-.2-.2-.4-.3-.6-.4-.2-.1-.5-.1-.7-.1-1 0-1.8.7-1.8 1.8 0 .7.4 1.4 1.1 1.7.7.3 1.5.1 2-.4l.8.7c-.3.3-.6.5-.9.7-.4.2-.7.2-1.1.2-1.4-.1-2.8-1.3-2.8-3zm-3.3 1.7c0-.1 0-.2.1-.3 0-.1.1-.2.2-.2l.2-.2c.1 0 .2-.1.3-.1.1 0 .2 0 .3.1.1 0 .2.1.2.2l.2.2c0 .1.1.2.1.3 0 .2-.1.4-.2.5-.1.1-.3.2-.5.2s-.4-.1-.5-.2c-.3-.1-.4-.3-.4-.5zm2.8-11.3H109l-2.6 6.7-2.6-6.7h-3.7l4.5 10.7-2.8 7h3.7l7.2-17.7zM90 16.3c0 1.7 1.5 2.8 3 2.8 1.4 0 2.8-1 2.8-2.8 0-1.8-1.4-2.8-2.8-2.8-1.5 0-3 1.1-3 2.8zm5.8 6V21c-.8 1.1-2.5 1.6-3.4 1.6-3 0-6-2.4-6-6.2 0-3.8 3-6.2 6-6.2.8 0 2.5.3 3.4 1.6v-1.3h3.5v11.9l-3.5-.1zm-10.4 0h-3.5v-1.5c-.6 1.1-2 1.7-3.5 1.7-3 0-5.7-2.4-5.7-6.2 0-3.8 2.7-6.2 5.7-6.2 1.5 0 2.9.6 3.5 1.7V3.9h3.5v18.4zm-3.5-6c0-1.8-1.3-2.8-2.7-2.8-1.5 0-2.7 1.1-2.7 2.8 0 1.8 1.2 2.9 2.7 2.9 1.4 0 2.7-1.2 2.7-2.9zM64.2 16c0-1.8.9-2.4 2.2-2.4 1.2 0 2 .8 2 2.4v6.3h3.5v-7.1c0-3.4-1.7-5-4.3-5-1.4 0-2.8.8-3.4 2v-1.7h-3.5v11.9h3.5V16zm-10.6 6.5c-3.3 0-6.1-2.4-6.1-6.2 0-3.7 2.8-6.2 6.1-6.2s6.1 2.4 6.1 6.2c0 3.7-2.8 6.2-6.1 6.2zm0-3.5c1.5 0 2.7-1.1 2.7-2.7s-1.2-2.7-2.7-2.7c-.4 0-.7.1-1 .2-.3.1-.6.3-.9.6l-.6.9c-.1.3-.2.7-.2 1 0 1.6 1.2 2.7 2.7 2.7zm-12.4-5.4c1 0 1.9.8 1.9 2.4v6.3h3.5v-6.7c0-3.6-1.7-5.4-4.5-5.4-.8 0-2.4.3-3.5 2.1-.7-1.4-1.9-2.1-3.8-2.1-.6 0-1.3.2-1.8.5s-1 .8-1.3 1.4v-1.7h-3.5v11.9h3.5V16c0-1.8 1-2.4 2-2.4s1.9.8 1.9 2.3v6.4h3.5V16c0-1.8 1-2.4 2.1-2.4z" fill="#fff"/>
</svg>
