<svg xmlns="http://www.w3.org/2000/svg" viewBox="0 0 98 32" xml:space="preserve">
  <path d="M59.6 17.7s-.2-.7-.2-1.3V8.1h3.3v16.1L52 15.3c-.6-.5-.9-1-.9-1s.2.6.2 1.1v8.4H48v-16l10.6 8.7c.6.5 1 1.2 1 1.2zm30.3-9.6c5.3 0 6.7 2.1 6.7 5.1 0 2.2-1.6 4.3-4.8 4.6h-.4s.3.1.6.4l5.9 5.7h-4.5l-8.2-8.3h4.1c3.7 0 3.8-1.9 3.8-2.4.1-1.2-.3-2.2-3.1-2.2h-4.7v13h-3.5V8.1h8.1zm-25.6 8.1c0-6.6 5.5-8.3 10.1-8.3 1.9 0 3.5.2 5.2.5v3.3c-1-.3-3-1-5.2-1-4.4 0-6.5 1.7-6.5 5.4 0 3 2.3 5 6.5 5 2.2 0 4.5-.5 5.6-.9v3.2c-1.7.4-3.7.6-5.6.6-4.9.1-10.1-2.3-10.1-7.8zM26.7 8.5l3.3 3.1c-.1 0-.2.1-.3.2-.2.1-.4.2-.7.4-.5.4-1.2 1-2.1 1.9l-6.4 6.7c-1.1 1.2-2.2 2.1-3.2 2.6L14 20.3c.1 0 .2-.1.3-.2.2-.1.4-.2.7-.4.5-.4 1.2-1 2.1-1.9l6.4-6.7c1-1.1 2.1-2.1 3.2-2.6zM14 24.9c1.4 0 2.8-.3 3.7-.8.4-.2 1-.6 1.5-1s1.2-1 1.8-1.6l6.4-6.7c1.6-1.7 2.6-2.2 3.2-2.4l3.3 3.1c-.7.7-8.8 9.4-8.8 9.4-.6.6-1.1 1.2-1.5 1.5-.4.4-1 .9-1.4 1.1-1.9 1.4-4.5 2.5-7.9 2.5C6.4 30 0 23.7 0 16.4 0 7.3 7.1 2 13.6 2c2-.1 3.6.3 4.8.7 1.2.4 2 .9 2.7 1.2-.8.5-1.5 1.1-2.7 2.4l-1.3 1.4c-.3-.1-1.6-.6-3.4-.5-4.1.1-8.7 3.5-8.5 9 .2 5.2 4.4 8.7 8.8 8.7zm12.1-17c-.4.2-1 .6-1.5 1s-1.2 1-1.8 1.6l-6.4 6.7c-1.6 1.7-2.6 2.2-3.2 2.4l-3.2-3c.7-.7 8.8-9.4 8.8-9.4.6-.6 1.1-1.2 1.5-1.5.4-.4 1-.9 1.4-1.1C23.6 3.1 26.2 2 29.6 2c7.8 0 14.1 6.4 14.1 13.7 0 9.1-7.1 14.3-13.6 14.3-2 .1-3.6-.3-4.8-.7-1.2-.4-2-.9-2.7-1.2.8-.5 1.5-1.1 2.7-2.4l1.3-1.4c.3.1 1.6.6 3.4.5 4.1-.1 8.7-3.5 8.5-9-.2-5.2-4.4-8.6-8.8-8.6-1.4-.1-2.7.2-3.6.7z" fill="#fff"/>
</svg>
