<svg width="211" height="32" viewBox="0 0 211 32" fill="none" xmlns="http://www.w3.org/2000/svg">
  <path d="M16.393 5.065c0-2.279-2.164-2.848-3.873-2.848v.342c1.025 0 1.822.341 1.822 1.139 0 .455-.341 1.139-1.366 1.139-.798 0-2.507-.456-3.76-.911C7.736 3.356 6.37 2.9 5.23 2.9c-2.278 0-3.873 1.709-3.873 3.646 0 1.708 1.253 2.278 1.709 2.506l.114-.228c-.228-.228-.57-.456-.57-1.14 0-.455.456-1.252 1.595-1.252 1.025 0 2.392.455 4.215 1.025 1.595.455 3.303.797 4.215.911V11.9l-1.709 1.481v.114l1.709 1.481v4.899c-.912.569-1.937.683-2.848.683-1.709 0-3.19-.456-4.443-1.823l4.67-2.278v-7.86l-5.695 2.506c.456-1.48 1.709-2.506 2.962-3.19l-.114-.341c-3.417.911-6.493 4.1-6.493 7.974 0 4.556 3.759 7.974 7.974 7.974 4.556 0 7.518-3.645 7.518-7.405h-.228c-.683 1.481-1.708 2.848-2.961 3.532v-4.67l1.822-1.482v-.114l-1.822-1.48V8.367c1.708 0 3.417-1.139 3.417-3.303Zm-9.91 12.53-1.368.684c-.797-1.026-1.253-2.393-1.253-4.33 0-.796 0-1.708.228-2.391l2.392-1.025v7.062Zm12.074 2.62-1.48 1.14.227.227.684-.57 2.506 2.279 3.417-2.278-.114-.228-.91.57-1.14-1.14V12.47l.911-.683 1.937 1.594v6.95c0 4.328-.912 5.011-2.848 5.695v.342c3.19.113 6.151-.912 6.151-6.494v-7.518l1.026-.797-.228-.228-.912.683-2.848-2.392-3.19 2.392v-9.34h-.227l-3.987 2.733v.228c.456.228 1.14.456 1.14 1.709l-.115 12.872Zm20.847-1.253-2.848 2.165-2.848-2.279v-1.367l5.354-3.645v-.114l-2.734-4.1-5.924 3.189v7.518l-1.139.911.228.228 1.025-.797 3.873 2.848 5.127-4.101-.114-.456Zm-5.696-1.936v-5.582l.228-.114 2.506 3.987-2.734 1.709ZM61.16 4.039c0-.341-.114-.683-.228-1.025h-.227c-.342.912-.798 1.367-1.937 1.367-1.025 0-1.709-.57-2.164-1.025L53.3 7.116l.228.227 1.139-1.025c.684.57 1.253 1.025 2.848 1.139v9.455L50.795 5.406c-.57-.91-1.367-2.164-2.962-2.164-1.822 0-3.417 1.595-3.19 4.1h.342c.114-.683.456-1.48 1.253-1.48.57 0 1.14.57 1.481 1.14v3.758c-2.05 0-3.417.912-3.417 2.62 0 .912.456 2.279 1.822 2.62v-.227c-.227-.228-.341-.456-.341-.798 0-.57.455-1.025 1.253-1.025h.57v4.784c-2.393 0-4.33 1.367-4.33 3.646 0 2.164 1.823 3.19 3.874 3.075v-.228c-1.253-.114-1.823-.683-1.823-1.48 0-1.026.684-1.481 1.595-1.481.911 0 1.709.57 2.278 1.253l3.304-3.645-.228-.228-.798.911c-1.253-1.14-1.936-1.48-3.417-1.709V7.457l9.113 15.948h.684V7.457c1.708-.114 3.303-1.481 3.303-3.418Zm8.316 14.923-2.848 2.165-2.848-2.279v-1.367l5.354-3.645v-.114l-2.734-4.1-5.923 3.189v7.518l-1.14.911.228.228 1.026-.797 3.873 2.848 5.126-4.101-.114-.456Zm-5.696-1.936v-5.582l.228-.114 2.506 3.987-2.734 1.709Zm24.264-6.152-.798.57-2.164-1.823-2.506 2.278 1.025 1.026v8.543l-2.734-1.708v-7.063l.912-.57-2.62-2.506-2.507 2.278 1.026 1.026v8.201l-.342.228-2.392-1.708V12.81c0-1.595-.798-2.05-1.709-2.62-.797-.57-1.253-.912-1.253-1.709 0-.683.683-1.025 1.025-1.253v-.228c-.911 0-3.303.911-3.303 3.076 0 1.139.57 1.595 1.139 2.164.57.57 1.139 1.026 1.139 2.05V20.9l-1.253.911.228.228 1.139-.912 2.62 2.279 2.848-1.937 3.19 1.937 6.037-3.532v-7.632l1.48-1.139-.227-.228Zm21.188-6.265-1.139 1.025-2.506-2.278-3.76 2.734V3.584h-.341l.114 18.454c-.342 0-1.367-.228-2.165-.456l-.228-15.378c0-1.14-.797-2.734-2.847-2.734s-3.418 1.595-3.418 3.19h.342c.114-.684.456-1.254 1.139-1.254s1.253.456 1.253 1.937v4.443c-2.05.114-3.303 1.253-3.303 2.734 0 .91.455 2.278 1.822 2.278v-.228c-.456-.228-.57-.57-.57-.797 0-.684.57-.912 1.481-.912h.456v7.063c-1.709.57-2.392 1.823-2.392 3.19 0 1.936 1.48 3.303 3.76 3.303 1.594 0 2.96-.228 4.328-.57 1.139-.227 2.62-.57 3.303-.57.912 0 1.253.456 1.253 1.026 0 .797-.341 1.14-.797 1.253v.228c1.823-.342 2.962-1.48 2.962-3.19 0-1.708-1.709-2.734-3.532-2.734-.911 0-2.847.342-4.214.57-1.595.342-3.19.57-3.646.57-.797 0-1.708-.342-1.708-1.481 0-.912.797-1.709 2.734-1.709 1.025 0 2.278.114 3.531.456 1.367.341 2.62.683 3.759.683 1.709 0 3.19-.57 3.19-2.962V5.976l1.367-1.14-.228-.227Zm-4.671 6.949c-.341.341-.797.683-1.367.683-.569 0-1.139-.341-1.367-.683V6.546l1.14-.798 1.594 1.481v4.329Zm0 3.417c-.227-.228-.797-.57-1.367-.57-.569 0-1.139.342-1.367.57v-2.962c.228.228.798.57 1.367.57.57 0 1.14-.342 1.367-.57v2.962Zm0 5.354c0 .911-.569 1.823-1.822 1.823h-.912V15.43c.228-.228.798-.57 1.367-.57.57 0 1.026.342 1.367.57v4.898Zm15.607-8.088-3.646-2.62-5.581 3.19v7.404l-1.14.912.114.227.912-.683 3.645 2.734 5.696-3.418v-7.746Zm-6.152 7.177v-8.202l2.848 2.05v8.088l-2.848-1.936Zm16.973-9.569h-.227c-.342.228-.684.456-1.026.456-.455 0-1.025-.228-1.253-.57h-.228L126.32 11.9l-1.937-2.165-3.417 2.278.114.228.911-.57 1.139 1.254V20.1l-1.481 1.14.228.227.684-.57 2.734 2.279 3.531-2.392-.114-.228-1.025.57-1.367-1.14v-7.974c.569.57 1.253 1.14 2.05 1.14 1.595.114 2.506-1.481 2.62-3.304Zm13.67 10.936-3.873 2.62-5.24-7.974 3.759-5.81h.228c.456.456 1.139.912 1.936.912.798 0 1.367-.456 1.709-.912h.228c-.114 2.278-1.709 3.646-2.848 3.646-1.139 0-1.709-.57-2.392-.912l-.342.57 5.696 8.43 1.139-.684v.114Zm-12.53-.57-1.481 1.14.227.227.684-.57 2.506 2.279 3.417-2.278-.227-.228-.912.57-1.139-1.14V2.672h-.114l-4.101 2.734v.228c.456.228 1.14.342 1.14 1.709v12.872Zm31.44-15.15c0-2.279-2.165-2.848-3.873-2.848v.342c1.025 0 1.822.341 1.822 1.139 0 .455-.341 1.139-1.367 1.139-.797 0-2.506-.456-3.759-.911-1.481-.456-2.848-.912-3.987-.912-2.278 0-3.873 1.709-3.873 3.645 0 1.71 1.253 2.279 1.709 2.507l.114-.228c-.342-.228-.684-.456-.684-1.14 0-.455.456-1.252 1.595-1.252 1.025 0 2.392.455 4.215 1.025 1.595.455 3.303.797 4.215.911v3.531l-1.709 1.481v.114l1.709 1.481v4.898c-.912.57-1.937.684-2.848.684-1.709 0-3.19-.456-4.443-1.823l4.671-2.278V8.596l-5.696 2.506c.57-1.48 1.823-2.506 2.962-3.303l-.114-.228c-3.418.911-6.493 3.987-6.493 7.86 0 4.556 3.759 7.974 7.974 7.974 4.556 0 7.518-3.645 7.518-7.405H163c-.683 1.481-1.709 2.848-2.962 3.532v-4.67l1.823-1.482v-.114l-1.709-1.48V8.368c1.709 0 3.418-1.139 3.418-3.303Zm-9.911 12.53-1.367.684c-.797-1.026-1.253-2.393-1.253-4.33 0-.796.114-1.708.342-2.391l2.392-1.025-.114 7.062Zm13.898-13.67h-.114l-2.278 1.937v.114l1.936 2.164h.228l2.278-1.936V6.09l-2.05-2.164Zm3.417 16.86-.911.57-1.139-1.14v-7.86l1.139-.797-.228-.228-.797.683-2.051-2.392-3.303 2.278.228.342.797-.57 1.025 1.254v7.404l-1.481 1.14.114.227.798-.57 2.506 2.279 3.417-2.279-.114-.341Zm19.024-.114-.798.57-1.253-1.14v-7.746l1.139-.911-.227-.228-.912.797-2.62-2.392-3.417 2.392-2.62-2.392-3.19 2.392-2.05-2.392-3.304 2.278.114.342.798-.57 1.139 1.254v7.404l-.912.911 2.62 2.165 2.507-2.279-1.026-1.025v-7.746l1.026-.683 1.708 1.595V20.1l-.911.912 2.62 2.164 2.506-2.278-1.025-1.026v-7.518l.911-.57 1.823 1.595v6.835l-.798.798 2.62 2.392 3.532-2.392v-.342Zm9.91-1.709-2.848 2.165-2.847-2.279v-1.367l5.354-3.645v-.114l-2.734-4.1-5.924 3.189v7.746l3.987 2.848 5.126-4.101-.114-.342Zm-5.695-1.936v-5.582l.227-.114 2.507 3.987-2.734 1.709ZM210.274 16l-2.164-1.708c1.481-1.253 2.051-2.962 2.051-4.101v-.684h-.228c-.228.57-.684 1.14-1.595 1.14-.911 0-1.481-.456-2.051-1.14l-5.126 2.848v4.101l1.937 1.48c-1.937 1.71-2.278 2.849-2.278 3.76 0 1.14.569 1.937 1.48 2.278l.114-.227c-.227-.228-.455-.342-.455-.912 0-.341.455-.911 1.367-.911 1.139 0 1.822.797 2.164 1.14l4.898-2.963v-4.1h-.114Zm-1.253-3.417c-.797 1.367-2.506 2.734-3.531 3.417l-1.253-1.025v-3.987c.456 1.14 1.709 2.05 2.962 2.05.797 0 1.253-.113 1.822-.455Zm-1.936 9.113c-.57-1.253-1.937-2.164-3.304-2.164-.341 0-1.253 0-2.164.57.57-.912 2.05-2.507 3.987-3.646l1.367 1.14.114 4.1Z" fill="white"/>
</svg>
