<svg width="87" height="32" viewBox="0 0 87 32" fill="none" xmlns="http://www.w3.org/2000/svg">
  <path fill-rule="evenodd" clip-rule="evenodd" d="M81.327 11.085c1.549 0 3.172.346 4.303.79V8.838c-1.156-.37-2.754-.741-4.844-.741-3.96 0-6.64 1.482-6.64 4.569 0 5.334 7.648 4.248 7.648 6.718 0 .963-.91 1.506-2.705 1.506-1.623 0-3.517-.05-4.992-.74v3.012c1.475.519 3.615.741 5.238.741 4.106 0 7.082-1.235 7.082-5.038 0-5.088-7.697-3.606-7.697-6.62-.025-1.135 1.205-1.16 2.607-1.16ZM65.17 19.78h-1.377v4.124h-4.795V8.097c.098 0 3.811.074 5.483 0 4.943.074 8.239 1.654 8.239 5.507 0 4.495-3.222 6.175-7.55 6.175Zm-.664-8.94h-.688v6.174h.688c2.41 0 3.418-.741 3.418-3.433 0-1.655-1.131-2.717-3.418-2.742ZM51.497 8.096h4.795v15.806h-4.795V8.097ZM39.865 23.903V8.097h4.796V20.47h4.795l-.689 3.433h-8.902ZM32.34 8.097h4.796v15.806H32.34V8.097Zm-7.525 9.632H20.02v6.174h-4.795V8.097h4.795v6.174h4.795V8.097h4.796v15.806h-4.796V17.73Zm-18.492 2.05H4.946v4.124H.175V8.097c.098 0 3.811.074 5.484 0 4.943.074 8.213 1.654 8.213 5.507 0 4.495-3.221 6.175-7.55 6.175Zm-.664-8.94H4.97v6.174h.689c2.41 0 3.418-.741 3.418-3.433 0-1.655-1.131-2.717-3.418-2.742Z" fill="white"/>
</svg>
