<svg width="78" height="60" viewBox="0 0 78 60" fill="none" xmlns="http://www.w3.org/2000/svg">
  <path d="M51.432 39.987c-2.362.424-3.65 2.122-3.65 5.199s1.61 5.199 4.187 5.199c1.18 0 2.255-.424 4.51-1.485v2.546c-2.685 1.167-4.295 1.592-6.443 1.592-2.362 0-3.972-.637-5.368-2.016-1.395-1.38-2.04-3.183-2.04-5.2 0-4.456 3.329-7.426 8.267-7.426 3.221 0 5.476 1.485 5.476 3.607 0 1.38-1.074 2.334-2.577 2.334-.751 0-1.396-.212-2.255-.636v-3.714h-.107ZM39.515 45.93c2.147-2.653 2.899-3.82 2.899-5.093 0-1.273-1.074-2.334-2.47-2.334-.859 0-1.61.424-2.04.848v5.518l-3.543 4.668v-10.61h-3.328l-5.69 9.019V38.82H23.41l-5.046 1.273v1.273l2.792.319V52.93h3.543l5.368-8.7v8.7h3.972l5.476-7.002ZM7.628 41.685c.86-.106 1.181-.106 1.61-.106 2.363 0 3.651 1.485 3.651 4.456 0 3.395-1.503 5.199-4.402 5.199h-.751v-9.55h-.108Zm0 11.034c.966.106 1.825.106 2.362.106 4.832 0 7.838-3.077 7.838-7.533 0-3.926-2.255-6.684-5.368-6.684-1.289 0-2.255.318-4.832 1.803v-1.91H6.233L.65 40.2v1.38h2.362v15.703l-2.148.53v1.273H9.99v-1.273l-2.362-.53v-4.563Zm26.733-22.281H48.32v-3.395H34.36v3.395Zm43.59-11.14v7.745H48.319V.518h15.138v3.077h3.113v4.562h7.408v11.14h3.973ZM66.57 9.323v10.08h6.334V9.324H66.57Zm-17.179 9.973h7.3V16.54h-7.3v2.758Zm0-11.14h12.884V4.656H49.392v3.5Zm0 1.167v6.154h8.374v3.82h4.51V9.323H49.392Zm0 16.552h7.3v-5.518h-7.3v5.518Zm8.374 0h4.51v-5.518h-4.51v5.518Zm5.69 0h2.04v-5.518h-2.04v5.518Zm2.04-6.579V9.324h-2.04v10.08h2.04v-.107Zm-2.04-14.641v3.5h2.04v-3.5h-2.04ZM49.393 3.595h12.884V1.579H49.392v2.016Zm23.513 22.28v-5.517H66.57v5.518h6.335Zm3.972-5.517h-2.791v5.518h2.791v-5.518Z" fill="white"/>
</svg>
