<svg xmlns="http://www.w3.org/2000/svg" viewBox="0 0 89 32" xml:space="preserve">
  <path d="M57.5 8.8c-3.9 0-7 3.2-7 7.2s3.2 7.1 7.1 7.1c3.9 0 7-3.2 7-7.2 0-3.9-3.2-7.1-7.1-7.1zm.1 11.4c-1.1 0-2.2-.4-2.9-1.2-.8-.8-1.2-1.8-1.2-2.9 0-1.1.4-2.2 1.2-2.9.8-.8 1.8-1.2 2.9-1.2 1.1 0 2.2.4 2.9 1.2.8.8 1.2 1.8 1.2 2.9 0 2.1-1.9 4.1-4.1 4.1zm15.6-8c-2 0-3.6 1.7-3.6 3.7v6.8h-3.1V9.2h3.1v2.1s1.3-2.1 4-2.1h.9v3h-1.3zM42.4 9.3l2.3 9.2 2.4-9.3h3.1l-3.8 13.5h-3L41 13.3l-2.3 9.4h-3l-4-13.5h3l2.7 9.2 2.2-9.3 2.8.2zm41.1 6c2.1-1.2 3.6-3.5 3.6-6.2H84c0 2.3-1.8 4.2-4 4.2h-.4V2.6h-3.1l.1 20h3.1v-6.3h.4c.4 0 .7.2.8.4l4.3 5.9h3.6l-5.3-7.3zM24.5 9c-3.3 0-5.9 2.2-6.8 5.8-1.6-2.5-2.8-5.3-3.6-7.7h-3.5v9.3c0 .9-.3 1.7-1 2.4-.6.6-1.5 1-2.4 1-.9 0-1.7-.3-2.4-1-.6-.6-1-1.5-1-2.4V7.1H.3v9.3c0 3.9 3.1 6.9 6.9 6.9 3.8 0 6.9-3.1 6.8-7v-1.6c.7 1.4 1.6 2.9 2.6 4.2l-2.2 10.3H18l1.6-7.5c1.4.9 3 1.4 4.9 1.4 3.9 0 7-3.2 7-7.3 0-1.9-.8-3.7-2.1-5-1.2-1.1-3-1.8-4.9-1.8zm.1 10.6c-1.4 0-2.8-.6-4-1.6l.3-1.4v-.1c.3-1.5 1-4.1 3.7-4.1.9 0 1.8.4 2.5 1 .7.7 1 1.5 1.1 2.5-.1 2.1-1.7 3.7-3.6 3.7z" fill="#fff"/>
</svg>
